<svg width="106" height="84" viewBox="0 0 106 84" fill="none" xmlns="http://www.w3.org/2000/svg">
  <path d="M76.51 41.998c0-13.17-10.526-23.846-23.512-23.846-9.165 0-17.105 5.318-20.985 13.077m41.352 22.693C69.3 61.049 61.701 65.845 52.998 65.845c-12.089 0-22.046-9.252-23.365-21.154" stroke="#E10019" stroke-width="3" stroke-linecap="round"/>
  <path d="M79.927 12.77C87.63 20.07 92.444 30.464 92.444 42c0 22.091-17.658 40-39.44 40-21.784 0-39.442-17.909-39.442-40S31.22 2 53.003 2a38.842 38.842 0 0 1 15.505 3.21" stroke="#E10019" stroke-width="3" stroke-linecap="round"/>
  <rect width="106.57" height="24.529" rx="3.038" transform="matrix(.86141 -.5079 .49734 .86756 1 59.191)" fill="white" stroke="#E10019" stroke-width="3"/>
  <path d="m23.969 63.056-2.84 1.674.315 1.645-1.502.886-1.559-8.703 1.666-.982 6.686 5.68-1.512.89-1.254-1.09Zm-1.049-.924-2.754-2.396.69 3.613 2.064-1.217Zm7.277-.821a3.95 3.95 0 0 1-1.496.538c-.493.061-.948-.001-1.364-.187-.417-.186-.754-.496-1.013-.931l1.533-.904c.19.283.425.456.707.52.29.058.597-.008.924-.201.334-.197.55-.43.65-.7a.936.936 0 0 0-.079-.807.833.833 0 0 0-.495-.41 1.485 1.485 0 0 0-.673-.03c-.238.03-.554.097-.95.202-.542.136-.996.225-1.364.267a2.398 2.398 0 0 1-1.094-.167c-.361-.154-.672-.457-.931-.91-.244-.425-.35-.858-.32-1.298.03-.44.188-.854.475-1.244.283-.396.67-.739 1.16-1.028.736-.434 1.436-.603 2.1-.509.668.084 1.21.434 1.628 1.05l-1.573.928a.91.91 0 0 0-.665-.42c-.285-.052-.587.016-.907.205-.28.164-.463.369-.55.613-.082.24-.044.498.114.772a.77.77 0 0 0 .46.376c.201.047.417.057.648.031.234-.037.55-.104.95-.202a9.54 9.54 0 0 1 1.37-.257c.371-.036.741.021 1.11.171.368.15.68.448.935.894.22.384.326.799.318 1.244-.01.446-.147.88-.415 1.305-.27.417-.669.78-1.193 1.089Zm5.52-12.96 4.116 7.181-1.43.844-1.752-3.056-3.054 1.801 1.752 3.056-1.43.843-4.117-7.181 1.43-.843 1.693 2.952 3.054-1.8-1.693-2.953 1.43-.844Zm9.202 4.183-3.178-1.87-.674.397 1.604 2.798-1.43.844-4.117-7.182 2.677-1.578c.551-.325 1.078-.503 1.58-.533.499-.036.94.057 1.323.28.386.213.697.526.933.937.271.473.38.982.329 1.527-.056.538-.312 1.037-.768 1.499l3.375 1.905-1.654.976Zm-4.471-2.553 1.195-.705c.388-.229.624-.492.709-.79.08-.304.024-.625-.168-.96-.189-.33-.43-.528-.723-.593-.297-.073-.64.005-1.027.234l-1.195.704 1.209 2.11Zm10.925-3.083-2.84 1.674.315 1.645-1.502.886-1.559-8.703 1.666-.982 6.686 5.68-1.512.89-1.254-1.09Zm-1.049-.924-2.754-2.396.69 3.613 2.064-1.217Zm2.754-6.303 1.032 1.8 2.4-1.415.655 1.142-2.4 1.415 1.09 1.903 2.708-1.596.672 1.173-4.137 2.44-4.123-7.192 4.137-2.44.672 1.173-2.706 1.596Zm10.626-7.822.667 1.163-1.9 1.12 3.45 6.019-1.43.843-3.45-6.019-1.9 1.12-.667-1.162 5.23-3.084Zm2.749 3.17c-.405-.706-.61-1.43-.615-2.17a4.008 4.008 0 0 1 .548-2.072c.37-.64.897-1.162 1.578-1.563.796-.47 1.612-.676 2.448-.618.835.059 1.58.38 2.235.967l-1.645.97a1.934 1.934 0 0 0-1.137-.362c-.39.001-.78.116-1.169.345-.415.245-.73.564-.942.955a2.36 2.36 0 0 0-.284 1.269c.027.461.179.932.454 1.412.271.473.6.84.985 1.098.388.248.8.378 1.234.388.437 0 .863-.124 1.278-.369.388-.228.68-.515.874-.86.198-.354.28-.751.247-1.19l1.644-.97c.183.874.092 1.694-.271 2.459-.36.754-.943 1.368-1.746 1.841-.681.402-1.386.611-2.115.628a3.978 3.978 0 0 1-2.046-.542c-.632-.37-1.15-.91-1.555-1.616Zm10.535-4.216c.227.27.484.43.769.483.288.041.595-.034.922-.227.422-.249.628-.605.618-1.067-.013-.469-.26-1.122-.74-1.959a1.82 1.82 0 0 1-.369.906 2.613 2.613 0 0 1-.803.721c-.436.258-.882.401-1.338.432a2.337 2.337 0 0 1-1.293-.325c-.413-.243-.767-.622-1.062-1.136-.436-.762-.558-1.498-.364-2.209.19-.717.673-1.305 1.45-1.763.967-.57 1.827-.66 2.58-.268.76.387 1.499 1.208 2.218 2.463.512.892.852 1.669 1.022 2.33.176.658.162 1.245-.044 1.76-.198.512-.618.957-1.258 1.334-.504.297-.988.454-1.452.471a2.47 2.47 0 0 1-1.26-.29 2.795 2.795 0 0 1-.924-.873l1.328-.783Zm.021-2.49c.354-.209.57-.483.649-.823.079-.34.012-.695-.2-1.066-.233-.404-.52-.652-.864-.743-.341-.102-.695-.044-1.063.172-.368.217-.594.506-.678.868-.082.351-.014.715.202 1.092.208.364.482.602.82.715.34.102.719.03 1.134-.215Zm6.766 1.407c-.26.153-.519.2-.78.143a.94.94 0 0 1-.593-.463.923.923 0 0 1-.097-.74c.076-.266.244-.475.502-.627a.969.969 0 0 1 .765-.12c.254.06.45.211.587.451.138.24.172.491.103.752a1.015 1.015 0 0 1-.487.604Zm2.261-4.252c.228.27.484.43.769.483.288.041.595-.034.922-.227.422-.249.629-.605.619-1.067-.014-.469-.26-1.122-.74-1.959a1.82 1.82 0 0 1-.37.906 2.615 2.615 0 0 1-.803.722 3.01 3.01 0 0 1-1.338.43 2.337 2.337 0 0 1-1.293-.324c-.413-.243-.767-.622-1.062-1.136-.436-.762-.557-1.498-.364-2.209.19-.717.674-1.305 1.45-1.763.967-.57 1.827-.66 2.58-.268.76.387 1.499 1.208 2.218 2.463.512.892.852 1.669 1.022 2.33.176.658.162 1.245-.044 1.76-.198.512-.618.957-1.258 1.334-.504.297-.988.454-1.452.471a2.47 2.47 0 0 1-1.26-.29 2.793 2.793 0 0 1-.924-.873l1.328-.783Zm.021-2.49c.354-.209.57-.483.65-.823.078-.34.01-.695-.202-1.066-.231-.404-.52-.652-.863-.743-.341-.102-.695-.044-1.063.172-.368.217-.594.506-.678.868-.081.351-.014.715.202 1.092.209.364.482.602.82.715.34.101.719.03 1.134-.215Z" fill="#E10019"/>
</svg>
