<svg width="106" height="84" viewBox="0 0 106 84" fill="none" xmlns="http://www.w3.org/2000/svg">
  <path d="M76.51 41.998c0-13.17-10.526-23.846-23.512-23.846-9.165 0-17.105 5.318-20.985 13.077m41.352 22.693C69.3 61.049 61.701 65.845 52.998 65.845c-12.089 0-22.046-9.252-23.365-21.154" stroke="#E10019" stroke-width="3" stroke-linecap="round"/>
  <path d="M79.927 12.77C87.63 20.07 92.444 30.464 92.444 42c0 22.091-17.658 40-39.44 40-21.784 0-39.442-17.909-39.442-40S31.22 2 53.003 2a38.842 38.842 0 0 1 15.505 3.21" stroke="#E10019" stroke-width="3" stroke-linecap="round"/>
  <rect width="106.57" height="24.529" rx="3.038" transform="matrix(.86141 -.5079 .49734 .86756 1 59.191)" fill="white" stroke="#E10019" stroke-width="3"/>
  <path d="m33.564 57.898-2.952 1.74.327 1.71-1.561.921-1.62-9.047 1.73-1.02 6.951 5.903-1.571.927-1.304-1.134Zm-1.09-.96-2.863-2.49.718 3.755 2.145-1.265Zm7.411-7.762c.23.4.348.83.357 1.292.017.458-.116.913-.397 1.365-.274.448-.715.85-1.324 1.21l-1.242.732 1.643 2.866-1.487.877-4.279-7.465 2.73-1.609c.572-.338 1.118-.526 1.636-.564.518-.039.976.058 1.375.29.405.23.735.564.988 1.006Zm-2.12 2.696c.41-.242.662-.514.754-.817.087-.309.033-.635-.163-.977-.417-.727-1.029-.853-1.836-.377l-1.178.695 1.244 2.17 1.179-.694Zm8.733.403a4.104 4.104 0 0 1-1.555.559c-.513.064-.986-.001-1.419-.194-.432-.193-.783-.516-1.052-.968l1.593-.94c.197.295.442.475.736.54.3.062.62-.008.96-.208.347-.205.572-.448.676-.728a.972.972 0 0 0-.082-.839.866.866 0 0 0-.515-.426 1.543 1.543 0 0 0-.7-.031 8.045 8.045 0 0 0-.987.21c-.563.141-1.036.234-1.418.278a2.49 2.49 0 0 1-1.137-.174c-.376-.16-.698-.475-.968-.946-.254-.442-.365-.892-.333-1.349.031-.457.196-.888.495-1.293.294-.412.696-.768 1.205-1.069.765-.45 1.493-.627 2.184-.529.694.087 1.257.451 1.691 1.092l-1.635.964a.947.947 0 0 0-.691-.437c-.296-.054-.61.017-.944.213-.29.171-.48.384-.572.638-.084.25-.044.518.12.803a.8.8 0 0 0 .479.39c.208.049.432.06.672.032.243-.038.572-.108.988-.21a9.926 9.926 0 0 1 1.424-.267c.386-.037.77.022 1.153.178s.708.466.973.93c.229.398.339.83.33 1.293-.01.463-.153.915-.43 1.355-.283.434-.696.811-1.241 1.133Zm7.598-6.484-2.952 1.74.327 1.711-1.561.92-1.62-9.046 1.73-1.02 6.951 5.903-1.571.927-1.304-1.135Zm-1.09-.96-2.863-2.49.718 3.755 2.145-1.264Zm3.273-8.412c.779-.459 1.55-.708 2.313-.748a3.664 3.664 0 0 1 2.124.508c.648.37 1.187.93 1.617 1.68.429.748.642 1.5.64 2.255a3.84 3.84 0 0 1-.629 2.102c-.412.653-1.007 1.209-1.786 1.668l-2.59 1.528-4.28-7.465 2.591-1.528Zm3.497 6.224c.778-.46 1.257-1.028 1.437-1.706.18-.679.047-1.406-.399-2.183-.446-.778-1.005-1.258-1.68-1.443-.678-.191-1.406-.058-2.185.401l-1.05.62 2.825 4.93 1.052-.62Zm12.156-5.465-3.303-1.945-.701.413 1.668 2.91-1.487.876-4.28-7.465 2.783-1.64c.573-.338 1.12-.523 1.643-.554.518-.038.976.059 1.375.291.401.221.724.546.97.974.282.491.396 1.02.341 1.587-.058.559-.324 1.078-.797 1.558l3.508 1.98-1.72 1.015Zm-4.648-2.654 1.243-.733c.403-.238.649-.512.737-.821.084-.316.025-.65-.175-.999-.196-.342-.447-.547-.751-.616-.309-.076-.665.006-1.068.244l-1.242.732 1.256 2.192Zm8.933-8.573-3.44 2.029 1.048 1.828c.043-.273.17-.548.38-.825a2.55 2.55 0 0 1 .777-.701c.566-.334 1.101-.483 1.606-.446.504.037.95.203 1.337.5.384.288.702.654.955 1.096.47.82.615 1.617.434 2.392-.174.77-.69 1.408-1.546 1.913-.807.475-1.568.652-2.282.53-.715-.123-1.291-.493-1.731-1.112l1.444-.851c.227.247.5.392.817.434.325.037.66-.046 1.007-.25.418-.247.657-.565.718-.954.062-.389-.032-.8-.282-1.236-.253-.442-.555-.712-.905-.81-.347-.11-.73-.043-1.148.204-.297.175-.502.396-.614.662-.113.267-.14.55-.082.85l-1.422.839-2.624-4.578 4.8-2.83.753 1.316Z" fill="#E10019"/>
</svg>
