<svg width="106" height="84" viewBox="0 0 106 84" fill="none" xmlns="http://www.w3.org/2000/svg">
  <path d="M76.51 41.998c0-13.17-10.526-23.846-23.512-23.846-9.165 0-17.105 5.318-20.985 13.077m41.352 22.693C69.3 61.049 61.701 65.845 52.998 65.845c-12.089 0-22.046-9.252-23.365-21.154" stroke="#E10019" stroke-width="3" stroke-linecap="round"/>
  <path d="M79.927 12.77C87.63 20.07 92.444 30.464 92.444 42c0 22.091-17.658 40-39.44 40-21.784 0-39.442-17.909-39.442-40S31.22 2 53.003 2a38.842 38.842 0 0 1 15.505 3.21" stroke="#E10019" stroke-width="3" stroke-linecap="round"/>
  <rect width="106.57" height="24.529" rx="3.038" transform="matrix(.86141 -.5079 .49734 .86756 1 59.191)" fill="white" stroke="#E10019" stroke-width="3"/>
  <path d="m34.103 57.583-2.948 1.738.327 1.707-1.559.92-1.617-9.034 1.728-1.02 6.94 5.896-1.57.925-1.301-1.133Zm-1.089-.959-2.858-2.487.717 3.75 2.141-1.263Zm7.401-7.75c.229.399.348.829.357 1.29.016.457-.116.912-.397 1.363-.273.447-.714.85-1.322 1.208l-1.24.731 1.64 2.862-1.484.875-4.273-7.453 2.725-1.607c.572-.337 1.117-.525 1.635-.564.517-.038.974.059 1.372.291.405.228.734.563.987 1.004Zm-2.117 2.692c.41-.242.66-.514.753-.816.087-.309.033-.634-.163-.976-.416-.726-1.027-.851-1.833-.376l-1.177.694 1.243 2.168 1.177-.694Zm8.72.402a4.101 4.101 0 0 1-1.553.558c-.512.064-.984 0-1.416-.194-.432-.192-.782-.515-1.05-.966l1.59-.938c.197.294.441.473.734.539.3.061.62-.008.959-.208.346-.205.572-.447.676-.727a.97.97 0 0 0-.083-.837.865.865 0 0 0-.514-.426 1.541 1.541 0 0 0-.698-.031 8.013 8.013 0 0 0-.987.21 11.34 11.34 0 0 1-1.415.277 2.487 2.487 0 0 1-1.135-.173c-.376-.16-.698-.475-.967-.945-.253-.441-.364-.89-.333-1.347a2.43 2.43 0 0 1 .494-1.291c.294-.412.695-.767 1.204-1.068.764-.45 1.49-.626 2.18-.528.693.087 1.256.45 1.69 1.09l-1.634.963a.945.945 0 0 0-.69-.436c-.295-.054-.61.017-.942.213-.29.17-.48.383-.57.637-.085.25-.045.516.118.801a.8.8 0 0 0 .479.39c.207.048.431.06.67.032.244-.038.572-.108.987-.21a9.89 9.89 0 0 1 1.422-.267 2.41 2.41 0 0 1 1.152.178c.382.156.706.465.971.928.229.399.339.83.33 1.292-.01.462-.153.914-.43 1.353-.282.433-.695.81-1.24 1.13Zm7.587-6.474-2.948 1.738.326 1.708-1.558.919-1.618-9.034 1.728-1.019 6.94 5.896-1.569.925-1.301-1.133Zm-1.089-.958-2.858-2.487.716 3.75 2.142-1.263Zm3.269-8.4c.777-.459 1.547-.708 2.31-.747a3.658 3.658 0 0 1 2.12.507c.647.37 1.185.93 1.614 1.677.428.747.641 1.498.639 2.252 0 .743-.21 1.443-.627 2.099-.412.652-1.006 1.207-1.784 1.666l-2.587 1.525-4.272-7.454 2.587-1.525Zm3.491 6.214c.778-.458 1.256-1.026 1.435-1.703.18-.678.047-1.404-.398-2.18-.445-.776-1.004-1.256-1.677-1.44-.677-.192-1.405-.058-2.182.4l-1.05.62 2.822 4.922 1.05-.619Zm12.138-5.456-3.298-1.942-.7.412 1.665 2.905-1.484.875-4.273-7.453 2.778-1.638c.573-.338 1.12-.522 1.64-.553.518-.039.975.058 1.373.29.401.221.724.545.969.972.281.491.395 1.02.341 1.585-.058.559-.324 1.077-.796 1.556l3.503 1.978-1.718 1.013Zm-4.64-2.65 1.24-.732c.403-.238.648-.511.736-.82.084-.316.025-.649-.174-.997-.196-.342-.446-.547-.75-.616-.308-.075-.664.006-1.067.244l-1.24.731 1.254 2.19Zm8.552-8.558L77.319 34l-1.506.888-.874-8.157-3.626 2.138-.734-1.282 5.11-3.013.637 1.11Z" fill="#E10019"/>
</svg>
