<svg width="106" height="84" viewBox="0 0 106 84" fill="none" xmlns="http://www.w3.org/2000/svg">
  <path d="M76.51 41.998c0-13.17-10.526-23.846-23.512-23.846-9.165 0-17.105 5.318-20.985 13.077m41.352 22.693C69.3 61.049 61.701 65.845 52.998 65.845c-12.089 0-22.046-9.252-23.365-21.154" stroke="#E10019" stroke-width="3" stroke-linecap="round"/>
  <path d="M79.927 12.77C87.63 20.07 92.444 30.464 92.444 42c0 22.091-17.658 40-39.44 40-21.784 0-39.442-17.909-39.442-40S31.22 2 53.003 2a38.842 38.842 0 0 1 15.505 3.21" stroke="#E10019" stroke-width="3" stroke-linecap="round"/>
  <rect width="106.57" height="24.529" rx="3.038" transform="matrix(.86141 -.5079 .49734 .86756 1 59.191)" fill="white" stroke="#E10019" stroke-width="3"/>
  <path d="m33.47 57.953-2.952 1.74.327 1.71-1.56.921-1.62-9.047 1.73-1.02 6.95 5.903-1.57.927-1.305-1.134Zm-1.09-.96-2.862-2.49.717 3.755 2.145-1.265Zm7.412-7.762c.229.4.348.83.357 1.292.016.458-.116.913-.397 1.365-.274.448-.715.85-1.324 1.21l-1.242.732 1.643 2.866-1.487.877-4.28-7.465 2.73-1.609c.573-.338 1.119-.526 1.637-.564.518-.039.976.058 1.374.29.406.23.736.564.989 1.006Zm-2.12 2.696c.41-.242.661-.514.753-.817.088-.309.034-.635-.162-.977-.417-.727-1.029-.853-1.836-.377l-1.179.695 1.245 2.17 1.178-.694Zm8.732.403a4.103 4.103 0 0 1-1.555.559 2.62 2.62 0 0 1-1.418-.194c-.433-.193-.783-.516-1.052-.968l1.593-.94c.197.295.442.475.735.54.3.062.62-.008.96-.208.347-.205.573-.448.677-.728a.973.973 0 0 0-.083-.839.866.866 0 0 0-.514-.426 1.541 1.541 0 0 0-.7-.031 8.007 8.007 0 0 0-.987.21c-.564.141-1.036.234-1.418.278a2.492 2.492 0 0 1-1.137-.174c-.376-.16-.699-.475-.969-.946-.253-.442-.364-.892-.333-1.349.032-.457.197-.888.495-1.293.294-.412.696-.768 1.206-1.069.765-.45 1.492-.627 2.183-.529.694.087 1.258.451 1.692 1.092l-1.636.964a.947.947 0 0 0-.69-.437c-.297-.054-.611.017-.944.213-.29.171-.48.384-.572.638-.084.25-.044.518.12.803a.8.8 0 0 0 .478.39c.209.049.433.06.673.032.243-.038.572-.108.987-.21a9.927 9.927 0 0 1 1.424-.267c.386-.037.771.023 1.154.178.383.156.707.466.973.93.229.398.339.83.33 1.293-.01.463-.153.915-.431 1.356-.282.433-.696.81-1.24 1.132Zm7.598-6.484-2.952 1.74.327 1.711-1.56.92-1.62-9.046 1.73-1.02 6.95 5.903-1.57.927-1.305-1.135Zm-1.09-.96-2.862-2.49.717 3.755 2.145-1.265Zm3.274-8.412c.779-.459 1.55-.708 2.313-.748a3.664 3.664 0 0 1 2.124.508c.648.37 1.187.93 1.616 1.68.43.748.643 1.5.64 2.255a3.84 3.84 0 0 1-.628 2.102c-.412.653-1.007 1.209-1.786 1.668l-2.591 1.528-4.28-7.465 2.592-1.528Zm3.496 6.224c.779-.46 1.258-1.028 1.438-1.706.18-.679.046-1.406-.4-2.183-.445-.777-1.005-1.258-1.679-1.443-.678-.191-1.406-.058-2.185.401l-1.051.62 2.826 4.93 1.051-.62Zm12.156-5.465-3.302-1.945-.701.413 1.667 2.91-1.486.876-4.28-7.465 2.783-1.64c.573-.338 1.12-.523 1.643-.554.518-.038.976.059 1.374.291a2.5 2.5 0 0 1 .97.974c.282.491.396 1.02.342 1.587-.058.559-.324 1.078-.798 1.558l3.508 1.98-1.72 1.015Zm-4.647-2.654 1.242-.733c.404-.238.65-.512.737-.82.084-.317.026-.65-.174-1-.197-.342-.447-.547-.751-.616-.309-.075-.665.006-1.068.244l-1.243.732 1.257 2.192Zm6.523-.484-.674-1.176.603-7.053 1.73-1.02 2.796 4.876.935-.55.748 1.304-.935.551.87 1.519-1.486.876-.87-1.518-3.717 2.191Zm1.188-6.825-.3 4.556 2.176-1.283-1.876-3.273Z" fill="#E10019"/>
</svg>
