<svg width="106" height="84" viewBox="0 0 106 84" fill="none" xmlns="http://www.w3.org/2000/svg">
  <path d="M76.51 41.998c0-13.17-10.526-23.846-23.512-23.846-9.165 0-17.105 5.318-20.985 13.077m41.352 22.693C69.3 61.049 61.701 65.845 52.998 65.845c-12.089 0-22.046-9.252-23.365-21.154" stroke="#E10019" stroke-width="3" stroke-linecap="round"/>
  <path d="M79.927 12.77C87.63 20.07 92.444 30.464 92.444 42c0 22.091-17.658 40-39.44 40-21.784 0-39.442-17.909-39.442-40S31.22 2 53.003 2a38.842 38.842 0 0 1 15.505 3.21" stroke="#E10019" stroke-width="3" stroke-linecap="round"/>
  <rect width="106.57" height="24.529" rx="3.038" transform="matrix(.86141 -.5079 .49734 .86756 1 59.191)" fill="white" stroke="#E10019" stroke-width="3"/>
  <path d="m46.812 42.001 4.28 7.465-1.487.877-1.821-3.177-3.175 1.872 1.82 3.177-1.486.876-4.28-7.465 1.487-.876 1.76 3.07 3.175-1.873-1.76-3.07 1.487-.876Zm4.054-2.39c.779-.46 1.55-.709 2.313-.749a3.664 3.664 0 0 1 2.124.508c.649.371 1.187.931 1.617 1.68.429.748.642 1.5.64 2.256a3.84 3.84 0 0 1-.629 2.101c-.412.653-1.007 1.21-1.786 1.669l-2.59 1.527-4.28-7.464 2.591-1.528Zm3.497 6.223c.778-.459 1.258-1.028 1.437-1.706.18-.678.047-1.406-.399-2.183-.446-.777-1.005-1.258-1.68-1.442-.677-.192-1.406-.058-2.185.401l-1.05.62 2.825 4.93 1.052-.62Zm8.405-3.153a4.103 4.103 0 0 1-1.555.56c-.513.063-.986-.001-1.419-.194-.432-.194-.783-.516-1.052-.968l1.593-.94c.197.294.442.474.736.54.3.061.62-.008.96-.209.347-.204.572-.447.677-.728a.973.973 0 0 0-.083-.838.866.866 0 0 0-.515-.427 1.543 1.543 0 0 0-.7-.03 8.01 8.01 0 0 0-.987.21 11.38 11.38 0 0 1-1.418.278 2.492 2.492 0 0 1-1.137-.174c-.376-.16-.698-.476-.968-.946-.253-.442-.364-.892-.333-1.35.031-.457.196-.888.495-1.293.294-.411.696-.768 1.206-1.068.764-.451 1.492-.627 2.183-.53.694.088 1.257.452 1.691 1.093l-1.635.964a.947.947 0 0 0-.691-.437c-.296-.054-.61.017-.944.213-.29.171-.48.384-.572.638-.084.25-.044.517.12.802.114.2.274.33.479.39.208.05.432.06.672.033.243-.038.573-.109.988-.21a9.913 9.913 0 0 1 1.424-.267c.386-.037.77.022 1.153.178s.708.465.973.929c.23.399.339.83.33 1.294-.01.463-.153.915-.43 1.355-.283.434-.696.81-1.241 1.132Z" fill="#E10019"/>
</svg>
