<svg width="106" height="84" viewBox="0 0 106 84" fill="none" xmlns="http://www.w3.org/2000/svg">
  <path d="M76.51 41.998c0-13.17-10.526-23.846-23.512-23.846-9.165 0-17.105 5.318-20.985 13.077m41.352 22.693C69.3 61.049 61.701 65.845 52.998 65.845c-12.089 0-22.046-9.252-23.365-21.154" stroke="#E10019" stroke-width="3" stroke-linecap="round"/>
  <path d="M79.927 12.77C87.63 20.07 92.444 30.464 92.444 42c0 22.091-17.658 40-39.44 40-21.784 0-39.442-17.909-39.442-40S31.22 2 53.003 2a38.842 38.842 0 0 1 15.505 3.21" stroke="#E10019" stroke-width="3" stroke-linecap="round"/>
  <rect width="106.57" height="24.529" rx="3.038" transform="matrix(.86141 -.5079 .49734 .86755 1 59.191)" fill="white" stroke="#E10019" stroke-width="3"/>
  <path d="m16.19 59.625 4.22 7.36-1.466.864-4.22-7.36 1.467-.864Zm8.233 5.092c-.51.3-1.02.485-1.533.552-.505.063-.971-.001-1.398-.192-.427-.19-.773-.508-1.038-.954l1.57-.926c.195.29.437.467.726.532.296.06.612-.008.947-.206.342-.201.564-.44.667-.718a.958.958 0 0 0-.082-.826.853.853 0 0 0-.507-.42 1.522 1.522 0 0 0-.69-.031c-.244.03-.568.1-.974.207-.555.14-1.02.23-1.398.274a2.457 2.457 0 0 1-1.12-.171c-.371-.158-.69-.469-.955-.933-.25-.436-.36-.879-.329-1.33.031-.45.194-.876.488-1.275.29-.406.687-.757 1.19-1.054.753-.444 1.47-.618 2.152-.521.684.085 1.24.444 1.668 1.076l-1.613.95a.934.934 0 0 0-.681-.43c-.292-.053-.602.017-.93.21-.286.169-.474.379-.564.629-.083.246-.044.51.117.791a.79.79 0 0 0 .473.385c.205.048.426.059.663.032.24-.038.564-.107.973-.207a9.76 9.76 0 0 1 1.404-.264c.381-.036.76.023 1.138.176.377.154.697.46.959.916.226.394.334.819.325 1.276-.009.456-.15.902-.425 1.336-.278.427-.685.8-1.223 1.116Zm7.25-4.274a4.358 4.358 0 0 1-2.163.627 4.114 4.114 0 0 1-2.13-.537c-.665-.379-1.205-.93-1.62-1.654-.411-.718-.612-1.46-.604-2.226.005-.774.2-1.492.588-2.152a4.434 4.434 0 0 1 1.606-1.597 4.315 4.315 0 0 1 2.163-.626 4.001 4.001 0 0 1 2.124.553c.661.372 1.198.917 1.609 1.634.415.724.62 1.473.615 2.247a4.172 4.172 0 0 1-.582 2.135 4.433 4.433 0 0 1-1.607 1.596Zm-.756-1.318c.44-.259.77-.586.992-.98a2.46 2.46 0 0 0 .29-1.328c-.025-.483-.179-.971-.46-1.463-.283-.492-.623-.866-1.021-1.12a2.294 2.294 0 0 0-1.275-.391c-.448 0-.892.13-1.331.39-.44.26-.774.588-1.003.986-.223.395-.321.834-.296 1.317.021.477.173.962.455 1.454.282.492.624.868 1.026 1.13.402.261.829.395 1.28.402a2.672 2.672 0 0 0 1.342-.397Zm7.374-4.912c.347-.957.613-1.74.798-2.347.18-.614.286-1.203.317-1.767.032-.564-.066-1.043-.291-1.437-.206-.358-.45-.59-.735-.695-.284-.105-.601-.055-.95.15-.349.207-.55.485-.6.835-.056.343.03.72.256 1.132l-1.424.84c-.455-.86-.574-1.646-.356-2.358.224-.715.7-1.287 1.426-1.715.795-.47 1.529-.615 2.2-.437.668.17 1.201.604 1.6 1.3.315.548.468 1.158.461 1.83a7.445 7.445 0 0 1-.255 1.9 39.2 39.2 0 0 1-.715 2.2l3.088-1.822.702 1.223-5.172 3.05-.629-1.097.279-.785Zm7.598-11.04.98 8.21-1.486.877-.863-8.054-3.58 2.11-.726-1.265 5.046-2.975.629 1.097Zm2.383 2.108c-.697-1.216-1.027-2.297-.99-3.24.046-.949.574-1.721 1.586-2.318s1.932-.678 2.76-.244c.834.43 1.6 1.252 2.297 2.468.701 1.223 1.032 2.312.99 3.268-.033.95-.556 1.724-1.568 2.321-1.012.597-1.937.677-2.776.24-.832-.44-1.598-1.272-2.3-2.495Zm4.209-2.482c-.299-.52-.584-.935-.855-1.246-.268-.321-.568-.535-.9-.64-.324-.11-.681-.05-1.072.18-.391.231-.623.519-.697.863-.066.34-.032.71.104 1.11.139.388.357.842.656 1.363.306.534.595.965.867 1.294.269.321.569.535.9.64.327.099.686.033 1.077-.197.391-.23.625-.515.703-.852.073-.344.039-.714-.104-1.11a9.364 9.364 0 0 0-.68-1.405Zm2.56-1.51c-.698-1.215-1.028-2.295-.99-3.24.045-.947.573-1.72 1.585-2.317 1.012-.596 1.932-.678 2.76-.244.835.43 1.6 1.252 2.298 2.468.7 1.223 1.031 2.313.99 3.268-.034.95-.556 1.725-1.569 2.322-1.012.596-1.937.676-2.776.24-.831-.441-1.598-1.273-2.299-2.496Zm4.208-2.48c-.298-.52-.583-.936-.854-1.246-.269-.322-.569-.535-.9-.641-.324-.11-.682-.05-1.073.181-.39.23-.623.518-.696.862-.067.34-.032.71.104 1.11.138.388.357.843.655 1.363.306.534.596.965.868 1.294.268.322.568.535.9.64.327.1.686.033 1.077-.197.39-.23.625-.515.702-.852.074-.344.039-.714-.104-1.11a9.35 9.35 0 0 0-.68-1.405Zm1.015-3.788-.78-1.36 2.524-1.488 4.406 7.687-1.507.889-3.627-6.327-1.016.599Zm8.457 3.577c-.265.157-.531.206-.798.147a.963.963 0 0 1-.608-.474.946.946 0 0 1-.1-.76c.078-.272.25-.486.515-.642a.992.992 0 0 1 .784-.123c.26.063.46.217.601.463a.986.986 0 0 1 .106.77 1.04 1.04 0 0 1-.5.62Zm-2.502-4.365c-.265.156-.532.205-.799.146a.963.963 0 0 1-.608-.473.947.947 0 0 1-.1-.76c.079-.272.25-.486.515-.642a.993.993 0 0 1 .784-.124c.26.063.46.218.602.464a.987.987 0 0 1 .105.77 1.04 1.04 0 0 1-.5.62Zm3.9 1.214c.347-.958.613-1.74.797-2.347a7.83 7.83 0 0 0 .318-1.767c.031-.564-.066-1.043-.292-1.437-.205-.358-.45-.59-.734-.695-.285-.105-.602-.055-.95.15-.35.206-.55.484-.601.834-.056.344.03.721.257 1.133l-1.424.84c-.456-.86-.575-1.646-.357-2.358.225-.716.7-1.288 1.426-1.716.796-.469 1.53-.614 2.201-.437.668.171 1.2.605 1.6 1.3.314.549.468 1.159.46 1.83a7.44 7.44 0 0 1-.255 1.9 39.16 39.16 0 0 1-.714 2.2l3.088-1.821.701 1.223-5.172 3.05-.628-1.097.278-.785Zm4.245-5.55c-.698-1.217-1.027-2.297-.99-3.241.045-.948.574-1.72 1.586-2.317 1.012-.597 1.932-.678 2.76-.245.834.43 1.6 1.253 2.297 2.469.701 1.223 1.032 2.312.99 3.267-.033.951-.556 1.725-1.568 2.322s-1.937.677-2.776.24c-.832-.44-1.598-1.273-2.3-2.496Zm4.208-2.482c-.298-.52-.583-.936-.854-1.246-.268-.322-.568-.535-.9-.64-.324-.11-.681-.05-1.072.18-.391.23-.623.518-.697.863-.066.34-.032.71.104 1.11.139.388.357.842.655 1.362.307.535.596.966.868 1.294.269.322.569.535.9.641.327.099.686.033 1.077-.198.391-.23.625-.514.703-.851.073-.345.038-.715-.104-1.11a9.35 9.35 0 0 0-.68-1.405Zm1.016-3.788-.78-1.36 2.523-1.488 4.407 7.687-1.508.89-3.627-6.327-1.015.598Zm4.373-1.69c-.368-.723-.434-1.408-.198-2.055.239-.658.732-1.208 1.478-1.648.51-.3.999-.466 1.466-.497.464-.039.875.043 1.234.246.362.19.653.48.875.866.254.443.354.887.301 1.332-.05.434-.202.796-.455 1.087l.024.042c.477-.112.92-.072 1.33.12.415.187.768.534 1.058 1.04.242.422.36.856.353 1.301.001.442-.132.868-.4 1.28-.265.401-.66.756-1.183 1.065-.789.465-1.546.643-2.271.535-.725-.109-1.326-.545-1.8-1.309l1.423-.84c.212.337.486.547.823.63.34.072.702-.005 1.086-.232.356-.21.572-.468.648-.776.078-.32.027-.637-.155-.953-.241-.422-.547-.646-.917-.672-.37-.027-.834.125-1.393.454l-.303.179-.696-1.213.304-.179c.991-.584 1.295-1.21.912-1.878-.173-.302-.398-.484-.677-.546-.27-.066-.574 0-.91.198-.327.193-.53.434-.606.724-.074.279-.046.564.083.854l-1.434.846Z" fill="#E10019"/>
</svg>
