<svg width="106" height="84" viewBox="0 0 106 84" fill="none" xmlns="http://www.w3.org/2000/svg">
  <path d="M76.51 41.998c0-13.17-10.526-23.846-23.512-23.846-9.165 0-17.105 5.318-20.985 13.077m41.352 22.693C69.3 61.049 61.701 65.845 52.998 65.845c-12.089 0-22.046-9.252-23.365-21.154" stroke="#E10019" stroke-width="3" stroke-linecap="round"/>
  <path d="M79.927 12.77C87.63 20.07 92.444 30.464 92.444 42c0 22.091-17.658 40-39.44 40-21.784 0-39.442-17.909-39.442-40S31.22 2 53.003 2a38.842 38.842 0 0 1 15.505 3.21" stroke="#E10019" stroke-width="3" stroke-linecap="round"/>
  <rect width="106.57" height="24.529" rx="3.038" transform="matrix(.86141 -.5079 .49734 .86756 1 59.191)" fill="white" stroke="#E10019" stroke-width="3"/>
  <path d="m40.89 45.493.694 1.208-1.975 1.165 3.586 6.256-1.486.876-3.587-6.256-1.975 1.165-.693-1.209 5.437-3.205Zm2.318-.25a1.074 1.074 0 0 1-.8.142.977.977 0 0 1-.616-.48.96.96 0 0 1-.1-.771c.078-.276.248-.49.51-.645.262-.155.527-.196.795-.125.271.06.478.214.621.463.143.25.175.512.096.788a1.055 1.055 0 0 1-.506.628Zm1.137.273 3.396 5.925-1.486.877-3.397-5.925 1.487-.877Zm8.562-1.256c.123.214.219.415.289.603l-4.301 2.535c.28.407.621.655 1.022.743.401.088.793.019 1.175-.206.552-.326.808-.797.768-1.412l1.603-.945c.157.67.102 1.333-.167 1.987-.273.648-.76 1.178-1.461 1.591-.566.334-1.148.51-1.744.528a3.12 3.12 0 0 1-1.67-.46c-.514-.318-.944-.78-1.291-1.386-.352-.613-.537-1.224-.554-1.834-.018-.61.124-1.17.427-1.683.303-.512.745-.94 1.325-1.282.56-.33 1.128-.503 1.706-.52a2.84 2.84 0 0 1 1.625.43c.5.297.917.733 1.248 1.311Zm-1.785.48c-.228-.38-.541-.606-.941-.675-.404-.077-.8 0-1.19.229a1.593 1.593 0 0 0-.738.893c-.121.367-.096.767.076 1.2l2.793-1.647Zm3.26-3.91c.01-.427.117-.82.32-1.177.209-.362.512-.66.908-.893l.901 1.572-.393.231c-.467.276-.757.595-.871.958-.107.359-.003.813.311 1.362l1.692 2.951-1.486.877-3.397-5.925 1.487-.876.527.92Zm5.413-6.483 4.279 7.464-1.487.877-4.28-7.465 1.487-.877Zm2.955-1.743 4.279 7.465-1.487.876-4.279-7.465 1.487-.876Zm2.955-1.743 4.28 7.465-1.487.877-4.28-7.465 1.487-.877Z" fill="#E10019"/>
</svg>
