<svg width="106" height="84" viewBox="0 0 106 84" fill="none" xmlns="http://www.w3.org/2000/svg">
  <path d="M76.51 41.998c0-13.17-10.526-23.846-23.512-23.846-9.165 0-17.105 5.318-20.985 13.077m41.352 22.693C69.3 61.049 61.701 65.845 52.998 65.845c-12.089 0-22.046-9.252-23.365-21.154" stroke="#E10019" stroke-width="3" stroke-linecap="round"/>
  <path d="M79.927 12.77C87.63 20.07 92.444 30.464 92.444 42c0 22.091-17.658 40-39.44 40-21.784 0-39.442-17.909-39.442-40S31.22 2 53.003 2a38.842 38.842 0 0 1 15.505 3.21" stroke="#E10019" stroke-width="3" stroke-linecap="round"/>
  <rect width="106.57" height="24.529" rx="3.038" transform="matrix(.86141 -.5079 .49734 .86755 1 59.191)" fill="white" stroke="#E10019" stroke-width="3"/>
  <path d="m14.418 60.67 4.22 7.36-1.466.864-4.22-7.36 1.466-.864Zm8.233 5.092c-.51.3-1.02.484-1.533.552-.506.063-.972-.001-1.398-.192-.427-.19-.773-.508-1.038-.954l1.57-.926c.195.29.436.467.726.532.296.06.611-.008.946-.206.342-.201.565-.44.668-.718a.958.958 0 0 0-.082-.826.854.854 0 0 0-.507-.42 1.521 1.521 0 0 0-.69-.031c-.244.03-.569.1-.974.207-.555.14-1.021.23-1.398.274a2.457 2.457 0 0 1-1.12-.171c-.371-.158-.69-.469-.956-.933-.25-.436-.359-.879-.328-1.33a2.4 2.4 0 0 1 .488-1.275c.29-.406.686-.758 1.189-1.054.754-.444 1.471-.618 2.152-.521.685.085 1.24.444 1.668 1.076l-1.612.95a.933.933 0 0 0-.681-.43c-.293-.053-.603.017-.93.21-.287.169-.475.378-.565.629-.083.246-.043.51.118.791a.79.79 0 0 0 .472.385c.206.048.427.059.663.032.24-.038.565-.107.974-.207a9.766 9.766 0 0 1 1.404-.264c.38-.036.76.023 1.137.176.378.154.698.459.96.916.225.394.334.819.325 1.276-.01.456-.15.902-.425 1.336-.278.427-.686.8-1.223 1.116Zm7.249-4.274a4.358 4.358 0 0 1-2.163.626 4.114 4.114 0 0 1-2.128-.536c-.666-.38-1.206-.93-1.621-1.655-.411-.717-.613-1.459-.604-2.226.005-.773.2-1.49.587-2.152a4.433 4.433 0 0 1 1.607-1.596 4.315 4.315 0 0 1 2.162-.626 4.001 4.001 0 0 1 2.125.553c.661.372 1.197.917 1.608 1.634.415.724.62 1.473.616 2.247a4.172 4.172 0 0 1-.583 2.135 4.434 4.434 0 0 1-1.606 1.596Zm-.756-1.318c.44-.259.77-.586.993-.98.218-.402.315-.844.29-1.328-.026-.483-.18-.971-.461-1.463-.282-.492-.622-.866-1.02-1.12a2.294 2.294 0 0 0-1.275-.391c-.448 0-.892.13-1.331.39-.44.26-.775.588-1.004.986-.222.395-.32.834-.295 1.317.02.477.172.961.454 1.453.282.493.624.87 1.026 1.13.402.262.83.396 1.281.402a2.672 2.672 0 0 0 1.342-.396Zm9.324-12.41-3.393 2 1.034 1.803c.042-.27.167-.54.374-.813.204-.28.46-.51.767-.692.558-.329 1.086-.475 1.583-.44.497.037.936.2 1.318.493.378.285.692.645.942 1.08.464.81.606 1.595.428 2.359-.172.76-.68 1.388-1.525 1.886-.795.47-1.545.644-2.25.523-.704-.121-1.273-.486-1.706-1.096l1.424-.84c.224.245.492.387.805.428.32.037.651-.045.993-.247.412-.242.648-.556.708-.94.06-.383-.032-.789-.278-1.218-.25-.435-.547-.702-.893-.8-.342-.108-.72-.04-1.13.202-.294.173-.496.39-.607.654-.11.262-.137.542-.08.837l-1.403.827-2.587-4.513 4.732-2.79.744 1.297Zm3.022 1.52c-.698-1.217-1.027-2.297-.99-3.24.045-.949.574-1.721 1.586-2.318s1.932-.678 2.76-.245c.834.43 1.6 1.253 2.297 2.469.701 1.223 1.032 2.312.99 3.267-.033.951-.556 1.725-1.568 2.322s-1.937.677-2.776.24c-.832-.44-1.598-1.273-2.3-2.496Zm4.208-2.482c-.298-.52-.583-.936-.854-1.246-.268-.321-.568-.535-.9-.64-.324-.11-.681-.05-1.072.18-.391.231-.623.519-.697.863-.066.34-.032.71.104 1.11.139.388.357.842.655 1.363.307.534.596.965.868 1.294.269.321.569.535.9.64.327.099.686.033 1.077-.198.391-.23.625-.514.703-.851.073-.345.038-.714-.104-1.11a9.357 9.357 0 0 0-.68-1.405Zm2.56-1.51c-.697-1.215-1.027-2.295-.989-3.24.045-.948.573-1.72 1.585-2.317 1.012-.597 1.932-.678 2.76-.244.834.43 1.6 1.252 2.297 2.468.702 1.223 1.032 2.312.991 3.268-.034.95-.557 1.725-1.569 2.321-1.012.597-1.937.677-2.776.24-.831-.44-1.598-1.272-2.299-2.495Zm4.209-2.481c-.298-.52-.583-.935-.855-1.246-.268-.321-.568-.535-.9-.64-.324-.11-.681-.05-1.072.18-.39.231-.623.519-.696.863-.067.34-.032.71.103 1.11.14.388.358.843.656 1.363.306.534.595.965.868 1.294.268.321.568.535.9.64.327.099.686.033 1.077-.197.39-.23.625-.515.702-.852.074-.344.039-.714-.104-1.11a9.355 9.355 0 0 0-.68-1.405Zm2.56-1.51c-.698-1.215-1.028-2.295-.99-3.24.045-.948.574-1.72 1.586-2.317 1.012-.596 1.931-.678 2.76-.244.834.43 1.6 1.252 2.297 2.468.701 1.224 1.031 2.313.99 3.268-.033.95-.556 1.725-1.568 2.322-1.012.596-1.938.676-2.776.24-.832-.441-1.599-1.273-2.3-2.496Zm4.208-2.48c-.298-.52-.583-.936-.854-1.246-.269-.322-.568-.535-.9-.641-.324-.11-.682-.05-1.073.181-.39.23-.623.518-.696.862-.067.34-.032.71.104 1.11.139.388.357.843.655 1.363.306.534.596.966.868 1.294.268.322.568.535.9.64.327.1.686.033 1.077-.197.39-.23.625-.514.702-.852.074-.344.04-.714-.104-1.11a9.34 9.34 0 0 0-.679-1.405Zm1.016-3.788-.78-1.36 2.523-1.488 4.406 7.687-1.507.889-3.627-6.327-1.015.599Zm8.456 3.577c-.265.157-.531.206-.798.147a.963.963 0 0 1-.608-.474.946.946 0 0 1-.1-.76c.078-.271.25-.486.515-.642a.993.993 0 0 1 .784-.123c.26.063.46.217.602.463a.987.987 0 0 1 .105.77 1.04 1.04 0 0 1-.5.62Zm-2.502-4.365c-.265.157-.531.205-.799.147a.964.964 0 0 1-.608-.474.947.947 0 0 1-.099-.76c.078-.272.25-.486.515-.642a.993.993 0 0 1 .783-.124c.26.063.461.218.602.464a.987.987 0 0 1 .105.77 1.04 1.04 0 0 1-.5.62Zm3.9 1.214c.347-.958.613-1.74.797-2.347a7.83 7.83 0 0 0 .318-1.767c.031-.565-.066-1.043-.291-1.437-.206-.358-.45-.59-.735-.695-.285-.105-.601-.055-.95.15-.35.206-.55.484-.6.834-.056.344.03.721.256 1.133l-1.424.84c-.456-.86-.574-1.646-.357-2.358.225-.716.7-1.288 1.426-1.715.796-.47 1.53-.615 2.201-.438.668.171 1.201.604 1.6 1.3.314.549.468 1.159.46 1.83a7.444 7.444 0 0 1-.255 1.9c-.167.589-.405 1.322-.714 2.2l3.088-1.821.701 1.223-5.172 3.05-.628-1.097.278-.785Zm4.245-5.55c-.697-1.217-1.027-2.297-.99-3.241.046-.948.574-1.72 1.586-2.317 1.012-.597 1.932-.678 2.76-.245.834.43 1.6 1.253 2.297 2.469.701 1.223 1.032 2.312.99 3.267-.033.951-.556 1.725-1.568 2.322s-1.937.677-2.776.24c-.832-.44-1.598-1.273-2.3-2.496Zm4.209-2.482c-.299-.52-.583-.936-.855-1.246-.268-.322-.568-.535-.9-.64-.324-.11-.681-.05-1.072.18-.391.23-.623.518-.697.863-.066.34-.031.71.104 1.11.139.388.357.842.656 1.362.306.535.595.966.867 1.294.269.322.569.535.9.641.327.099.687.033 1.077-.198.391-.23.625-.514.703-.851.073-.345.039-.715-.104-1.11a9.34 9.34 0 0 0-.68-1.405Zm1.015-3.788-.78-1.36 2.523-1.487 4.407 7.686-1.508.89-3.626-6.327-1.016.598Zm6.542-.838c-.907.046-1.58-.314-2.02-1.08-.218-.38-.32-.78-.31-1.2.014-.432.16-.852.44-1.261.282-.42.702-.795 1.26-1.124.559-.33 1.084-.512 1.577-.549.496-.048.929.031 1.298.236.373.194.668.481.886.86.222.388.323.784.303 1.19-.023.4-.145.773-.366 1.12.48-.058.921.011 1.323.207.402.196.73.515.983.958.275.478.392.968.353 1.47a2.718 2.718 0 0 1-.518 1.393c-.31.436-.727.81-1.25 1.118-.524.308-1.05.491-1.577.548a2.72 2.72 0 0 1-1.45-.231c-.442-.219-.8-.567-1.075-1.045-.254-.443-.365-.89-.334-1.34.027-.459.186-.882.477-1.27Zm1.828-3.067c-.198-.344-.455-.55-.774-.616-.31-.07-.644 0-1 .21-.35.205-.574.464-.675.778-.093.309-.04.64.162.99.181.317.431.508.75.575.325.062.655-.006.99-.203.335-.198.556-.455.664-.773a1.153 1.153 0 0 0-.117-.96Zm.07 2.81c-.399.234-.665.527-.8.88-.126.347-.081.71.136 1.09.202.352.486.57.852.655.369.074.76-.01 1.171-.253.412-.243.672-.547.78-.912a1.31 1.31 0 0 0-.133-1.064c-.214-.372-.501-.589-.862-.648-.365-.067-.747.017-1.145.251Z" fill="#E10019"/>
</svg>
