<svg width="32" height="32" viewBox="0 0 32 32" fill="none" xmlns="http://www.w3.org/2000/svg">
  <path d="M26.945 8.197a3.113 3.113 0 0 0-2.146-.864H7.213c-.85 0-1.666.35-2.268.972A3.4 3.4 0 0 0 4 10.655v10.688a3.4 3.4 0 0 0 .945 2.35 3.153 3.153 0 0 0 2.268.973h17.586c.85 0 1.663-.35 2.264-.973.6-.623.937-1.469.937-2.35v-5.6" stroke="#a4543d" stroke-width="2" stroke-linecap="round" stroke-linejoin="round"/>
  <path d="m8.994 11.949 4.784 4.612a3.523 3.523 0 0 0 2.41.968c.887 0 1.744-.344 2.41-.968l8.235-8.013.16-.196" stroke="#a4543d" stroke-width="2" stroke-linecap="round" stroke-linejoin="round"/>
</svg>
