<svg width="32" height="32" viewBox="0 0 32 32" fill="none" xmlns="http://www.w3.org/2000/svg">
  <path d="M14.72 25.063a26.49 26.49 0 0 1-4.217-3.55 28.896 28.896 0 0 1-2.96-3.35c-.7-.94-1.33-1.93-1.879-2.963a14.216 14.216 0 0 1-1.067-2.5 11.488 11.488 0 0 1-.483-1.9A6.511 6.511 0 0 1 4 9.55v-.5c.03-.253.108-.499.229-.725.097-.229.244-.434.432-.6L8.039 4.35A1.105 1.105 0 0 1 8.852 4a.937.937 0 0 1 .584.188c.176.127.323.289.432.475l2.73 5.15c.153.27.198.586.128.887-.06.307-.21.59-.432.813l-1.27 1.25a.372.372 0 0 0-.09.175.602.602 0 0 0 0 .187c.087.438.24.86.458 1.25.274.519.589 1.016.94 1.488.54.72 1.144 1.394 1.803 2.012A16.427 16.427 0 0 0 16.18 19.7c.469.356.966.674 1.486.95.287.161.595.283.915.363l.317.062h.166a.409.409 0 0 0 .165-.087l1.448-1.476c.297-.26.681-.402 1.08-.4.237-.009.473.043.685.15l4.915 2.9a1.264 1.264 0 0 1 .635.838 1.23 1.23 0 0 1-.355 1.012l-3.34 3.325c-.17.178-.373.322-.598.425a2.453 2.453 0 0 1-.724.238h-.152" stroke="white" stroke-width="2" stroke-linecap="round" stroke-linejoin="round"/>
</svg>
