<svg width="48" height="48" viewBox="0 0 48 48" fill="none" xmlns="http://www.w3.org/2000/svg">
  <path d="m35.563 29.948 9.321-9.59a.967.967 0 0 0-.529-1.628l-12.709-2.199a.968.968 0 0 1-.69-.502l-6.02-11.407a.967.967 0 0 0-1.71 0l-6.019 11.407a.968.968 0 0 1-.69.502L3.806 18.73a.967.967 0 0 0-.529 1.627l8.99 9.25a.968.968 0 0 1 .264.812l-1.836 12.766a.967.967 0 0 0 1.384 1.006L23.654 38.5a.967.967 0 0 1 .854 0l11.575 5.691a.967.967 0 0 0 1.384-1.006l-.011-.08" stroke="#E10019" stroke-width="4" stroke-linecap="round"/>
</svg>
