<svg width="16" height="16" fill="none" xmlns="http://www.w3.org/2000/svg"><style>@media (prefers-color-scheme:dark){path{fill:#fff}path:last-child{fill:none;stroke:#fff}}</style><path d="M12.357 10.035v1.507a.388.388 0 0 1-.397.389h-.75a.61.61 0 0 0 0 1.22h1.647a.758.758 0 0 0 .684-.73v-2.377a.61.61 0 0 0-.828-.559.573.573 0 0 0-.356.55zm-2.127 1.332a.61.61 0 0 0 .601-.602V9.258a.388.388 0 0 1 .398-.398h.74a.61.61 0 0 0 .61-.61.62.62 0 0 0-.62-.61h-1.655a.786.786 0 0 0-.684.74v2.395a.6.6 0 0 0 .61.591z" fill="#4F0599"/><path d="M10.905 15.399h3.182a1.85 1.85 0 0 0 1.72-1.683V8.925a3.57 3.57 0 0 0-3.57-3.57H9.231a1.85 1.85 0 0 0-1.85 1.905v4.532a3.58 3.58 0 0 0 3.524 3.607zm-2.358-3.607V7.343a.758.758 0 0 1 .74-.749h2.931a2.377 2.377 0 0 1 2.377 2.377v4.624a.749.749 0 0 1-.629.61h-3.033a2.368 2.368 0 0 1-2.386-2.376v-.037z" fill="#4F0599"/><path d="M10.248 3.653V1.175A.545.545 0 0 0 9.75.6h-7.4a.546.546 0 0 0-.527.564L1.63 14.816a.546.546 0 0 0 .527.583H7.64M4.043 3.413h3.773M4.043 5.3H6.89M4.043 7.186H6.05M4.043 9.073h1.84" stroke="#4F0599" stroke-width="1.3" stroke-miterlimit="10" stroke-linecap="round"/></svg>