<svg xmlns="http://www.w3.org/2000/svg" xmlns:xlink="http://www.w3.org/1999/xlink" viewBox="0 0 566.93 566.93"><defs><style>.cls-1{opacity:0.5;}.cls-2,.cls-3,.cls-4,.cls-5,.cls-6{opacity:0.62;}.cls-2{fill:url(#Dégradé_sans_nom_59);}.cls-3{fill:url(#Dégradé_sans_nom_59-2);}.cls-4{fill:url(#Dégradé_sans_nom_59-3);}.cls-5{fill:url(#Dégradé_sans_nom_59-4);}.cls-6{fill:url(#Dégradé_sans_nom_59-5);}.cls-7{fill:#fff;}.cls-8{fill:url(#Dégradé_sans_nom_144);}.cls-9{fill:url(#Dégradé_sans_nom_62);}.cls-10{fill:url(#Dégradé_sans_nom_64);}.cls-11{fill:url(#Dégradé_sans_nom_53);}.cls-12{fill:url(#Dégradé_sans_nom_53-2);}.cls-13{fill:url(#Dégradé_sans_nom_53-3);}.cls-14{fill:url(#Dégradé_sans_nom_12);}.cls-15{fill:url(#Dégradé_sans_nom_12-2);}.cls-16{fill:url(#Dégradé_sans_nom_144-2);}.cls-17{fill:url(#Dégradé_sans_nom_144-3);}.cls-18{fill:url(#Dégradé_sans_nom_10);}.cls-19{fill:url(#Dégradé_sans_nom_10-2);}.cls-20{fill:url(#Dégradé_sans_nom_40);}.cls-21{fill:url(#Dégradé_sans_nom_40-2);}.cls-22{fill:url(#Dégradé_sans_nom_12-3);}.cls-23{fill:url(#Dégradé_sans_nom_12-4);}.cls-24{fill:url(#Dégradé_sans_nom_12-5);}.cls-25{fill:url(#Dégradé_sans_nom_12-6);}.cls-26{fill:url(#Dégradé_sans_nom_12-7);}.cls-27{fill:url(#Dégradé_sans_nom_12-8);}.cls-28{fill:url(#Dégradé_sans_nom_12-9);}.cls-29{fill:url(#Dégradé_sans_nom_12-10);}.cls-30{fill:url(#Dégradé_sans_nom_12-11);}.cls-31{fill:url(#Dégradé_sans_nom_10-3);}.cls-32{fill:url(#Dégradé_sans_nom_10-4);}.cls-33{fill:url(#Dégradé_sans_nom_10-5);}.cls-34{fill:url(#Dégradé_sans_nom_10-6);}.cls-35{fill:url(#Dégradé_sans_nom_10-7);}.cls-36{fill:url(#Dégradé_sans_nom_16);}.cls-37{fill:url(#Dégradé_sans_nom_16-2);}.cls-38{fill:url(#Dégradé_sans_nom_10-8);}.cls-39{fill:url(#Dégradé_sans_nom_10-9);}.cls-40{fill:url(#Dégradé_sans_nom_10-10);}.cls-41{fill:url(#Dégradé_sans_nom_144-4);}.cls-42{fill:url(#Dégradé_sans_nom_10-11);}.cls-43{fill:url(#Dégradé_sans_nom_10-12);}.cls-44{fill:url(#Dégradé_sans_nom_144-5);}.cls-45{fill:url(#Dégradé_sans_nom_144-6);}.cls-46{fill:url(#Dégradé_sans_nom_144-7);}.cls-47{fill:url(#Dégradé_sans_nom_144-8);}.cls-48{fill:url(#Dégradé_sans_nom_144-9);}.cls-49{fill:url(#Dégradé_sans_nom_144-10);}.cls-50{fill:url(#Dégradé_sans_nom_144-11);}.cls-51{fill:url(#Dégradé_sans_nom_144-12);}.cls-52{fill:url(#Dégradé_sans_nom_144-13);}.cls-53{fill:url(#Dégradé_sans_nom_144-14);}.cls-54{fill:url(#Dégradé_sans_nom_144-15);}.cls-55{fill:url(#Dégradé_sans_nom_144-16);}.cls-56{fill:url(#Dégradé_sans_nom_144-17);}.cls-57{fill:url(#Dégradé_sans_nom_144-18);}.cls-58{fill:url(#Dégradé_sans_nom_144-19);}.cls-59{fill:url(#Dégradé_sans_nom_10-13);}.cls-60{fill:url(#Dégradé_sans_nom_12-12);}.cls-61{fill:url(#Dégradé_sans_nom_144-20);}.cls-62{fill:url(#Dégradé_sans_nom_10-14);}.cls-63{fill:url(#Dégradé_sans_nom_10-15);}.cls-64{fill:url(#Dégradé_sans_nom_10-16);}.cls-65{fill:url(#Dégradé_sans_nom_144-21);}.cls-66{fill:url(#Dégradé_sans_nom_144-22);}.cls-67{fill:url(#Dégradé_sans_nom_10-17);}.cls-68{fill:url(#Dégradé_sans_nom_10-18);}.cls-69{fill:url(#Dégradé_sans_nom_10-19);}.cls-70{fill:url(#Dégradé_sans_nom_10-20);}.cls-71{fill:url(#Dégradé_sans_nom_144-23);}.cls-72{fill:url(#Dégradé_sans_nom_144-24);}.cls-73{fill:url(#Dégradé_sans_nom_12-13);}.cls-74{fill:url(#Dégradé_sans_nom_10-21);}.cls-75{fill:url(#Dégradé_sans_nom_10-22);}.cls-76{fill:url(#Dégradé_sans_nom_40-3);}.cls-77{fill:url(#Dégradé_sans_nom_40-4);}.cls-78{fill:url(#Dégradé_sans_nom_40-5);}.cls-79{fill:url(#Dégradé_sans_nom_40-6);}.cls-80{fill:url(#Dégradé_sans_nom_10-23);}.cls-81{fill:url(#Dégradé_sans_nom_10-24);}.cls-82{fill:url(#Dégradé_sans_nom_10-25);}.cls-83{fill:url(#Dégradé_sans_nom_144-25);}.cls-84{fill:url(#Dégradé_sans_nom_10-26);}.cls-85{fill:url(#Dégradé_sans_nom_10-27);}.cls-86{fill:url(#Dégradé_sans_nom_144-26);}.cls-87{fill:url(#Dégradé_sans_nom_144-27);}.cls-88{fill:url(#Dégradé_sans_nom_12-14);}.cls-89{fill:url(#Dégradé_sans_nom_12-15);}.cls-90{fill:url(#Dégradé_sans_nom_12-16);}.cls-91{fill:url(#Dégradé_sans_nom_12-17);}.cls-92{fill:url(#Dégradé_sans_nom_144-28);}.cls-93{fill:url(#Dégradé_sans_nom_144-29);}.cls-94{fill:url(#Dégradé_sans_nom_12-18);}.cls-95{fill:url(#Dégradé_sans_nom_144-30);}.cls-96{fill:url(#Dégradé_sans_nom_144-31);}.cls-97{fill:url(#Dégradé_sans_nom_144-32);}.cls-98{fill:url(#Dégradé_sans_nom_144-33);}.cls-99{fill:url(#Dégradé_sans_nom_144-34);}.cls-100{fill:url(#Dégradé_sans_nom_144-35);}.cls-101{fill:url(#Dégradé_sans_nom_144-36);}.cls-102{fill:url(#Dégradé_sans_nom_144-37);}.cls-103{fill:url(#Dégradé_sans_nom_144-38);}.cls-104{fill:url(#Dégradé_sans_nom_144-39);}.cls-105{fill:url(#Dégradé_sans_nom_144-40);}.cls-106{fill:url(#Dégradé_sans_nom_144-41);}.cls-107{fill:url(#Dégradé_sans_nom_144-42);}.cls-108{fill:url(#Dégradé_sans_nom_144-43);}.cls-109{fill:url(#Dégradé_sans_nom_144-44);}.cls-110{fill:url(#Dégradé_sans_nom_144-45);}.cls-111{fill:url(#Dégradé_sans_nom_144-46);}.cls-112{fill:url(#Dégradé_sans_nom_144-47);}.cls-113{fill:url(#Dégradé_sans_nom_144-48);}.cls-114{fill:url(#Dégradé_sans_nom_144-49);}.cls-115{fill:url(#Dégradé_sans_nom_144-50);}.cls-116{fill:url(#Dégradé_sans_nom_144-51);}.cls-117{fill:url(#Dégradé_sans_nom_144-52);}.cls-118{fill:url(#Dégradé_sans_nom_144-53);}.cls-119{fill:url(#Dégradé_sans_nom_144-54);}.cls-120{fill:url(#Dégradé_sans_nom_144-55);}.cls-121{fill:url(#Dégradé_sans_nom_144-56);}.cls-122{fill:url(#Dégradé_sans_nom_10-28);}.cls-123{fill:url(#Dégradé_sans_nom_10-29);}.cls-124{fill:url(#Dégradé_sans_nom_144-57);}.cls-125{fill:url(#Dégradé_sans_nom_144-58);}.cls-126{fill:url(#Dégradé_sans_nom_144-59);}.cls-127{fill:url(#Dégradé_sans_nom_12-19);}.cls-128{fill:url(#Dégradé_sans_nom_40-7);}.cls-129{fill:url(#Dégradé_sans_nom_40-8);}.cls-130{fill:url(#Dégradé_sans_nom_12-20);}.cls-131{fill:url(#Dégradé_sans_nom_12-21);}.cls-132{fill:url(#Dégradé_sans_nom_144-60);}.cls-133{fill:url(#Dégradé_sans_nom_144-61);}.cls-134{fill:none;stroke:#fff;stroke-linecap:round;stroke-miterlimit:10;stroke-width:0.5px;}</style><linearGradient id="Dégradé_sans_nom_59" x1="736.7" y1="150.53" x2="-479.01" y2="574.08" gradientTransform="translate(188.21 -93.3) rotate(29.37)" gradientUnits="userSpaceOnUse"><stop offset="0" stop-color="#fff" stop-opacity="0"/><stop offset="1" stop-color="#4f0599"/></linearGradient><linearGradient id="Dégradé_sans_nom_59-2" x1="650.8" y1="-108.34" x2="-630.47" y2="542.94" gradientTransform="matrix(1, 0, 0, 1, 0, 0)" xlink:href="#Dégradé_sans_nom_59"/><linearGradient id="Dégradé_sans_nom_59-3" x1="835.06" y1="254.16" x2="-446.22" y2="905.43" gradientTransform="matrix(1, 0, 0, 1, 0, 0)" xlink:href="#Dégradé_sans_nom_59"/><linearGradient id="Dégradé_sans_nom_59-4" x1="773.97" y1="133.98" x2="-507.31" y2="785.25" gradientTransform="matrix(1, 0, 0, 1, 0, 0)" xlink:href="#Dégradé_sans_nom_59"/><linearGradient id="Dégradé_sans_nom_59-5" x1="739.19" y1="65.55" x2="-542.09" y2="716.83" gradientTransform="matrix(1, 0, 0, 1, 0, 0)" xlink:href="#Dégradé_sans_nom_59"/><linearGradient id="Dégradé_sans_nom_144" x1="652.08" y1="-299.84" x2="183.83" y2="447.49" gradientTransform="translate(-76.49 -22.73) scale(1.28 1.1)" gradientUnits="userSpaceOnUse"><stop offset="0" stop-color="#fff"/><stop offset="0.48" stop-color="#4f0599"/><stop offset="0.57" stop-color="#4b0594"/><stop offset="0.69" stop-color="#410584"/><stop offset="0.82" stop-color="#31056a"/><stop offset="0.96" stop-color="#190547"/><stop offset="1" stop-color="#11053a"/></linearGradient><radialGradient id="Dégradé_sans_nom_62" cx="290.05" cy="314.86" r="317.17" gradientTransform="translate(188.07 -92.77) rotate(29.37)" gradientUnits="userSpaceOnUse"><stop offset="0" stop-color="#fff" stop-opacity="0"/><stop offset="0.15" stop-color="#faf8fc" stop-opacity="0.03"/><stop offset="0.31" stop-color="#eae2f3" stop-opacity="0.12"/><stop offset="0.48" stop-color="#d1bde4" stop-opacity="0.26"/><stop offset="0.66" stop-color="#ad8acf" stop-opacity="0.47"/><stop offset="0.84" stop-color="#7f49b5" stop-opacity="0.73"/><stop offset="1" stop-color="#4f0599"/></radialGradient><linearGradient id="Dégradé_sans_nom_64" x1="463.53" y1="151.75" x2="185.75" y2="340.48" gradientUnits="userSpaceOnUse"><stop offset="0" stop-color="#fff" stop-opacity="0"/><stop offset="0.2" stop-color="#d9c9e9" stop-opacity="0.21"/><stop offset="0.75" stop-color="#763db0" stop-opacity="0.78"/><stop offset="1" stop-color="#4f0599"/></linearGradient><radialGradient id="Dégradé_sans_nom_53" cx="321.99" cy="314.83" r="107.55" gradientUnits="userSpaceOnUse"><stop offset="0" stop-color="#4f0599"/><stop offset="0.18" stop-color="#4b0594"/><stop offset="0.4" stop-color="#410584"/><stop offset="0.65" stop-color="#31056a"/><stop offset="0.92" stop-color="#190547"/><stop offset="1" stop-color="#11053a"/></radialGradient><radialGradient id="Dégradé_sans_nom_53-2" cx="255.23" cy="384.39" r="65.81" xlink:href="#Dégradé_sans_nom_53"/><radialGradient id="Dégradé_sans_nom_53-3" cx="229.03" cy="259.86" r="42.83" xlink:href="#Dégradé_sans_nom_53"/><linearGradient id="Dégradé_sans_nom_12" x1="150.09" y1="248.56" x2="148.43" y2="232.95" gradientUnits="userSpaceOnUse"><stop offset="0" stop-color="#fff"/><stop offset="1" stop-color="#fc6a65"/></linearGradient><linearGradient id="Dégradé_sans_nom_12-2" x1="146.54" y1="215.23" x2="151.97" y2="257.1" xlink:href="#Dégradé_sans_nom_12"/><linearGradient id="Dégradé_sans_nom_144-2" x1="138.73" y1="178.69" x2="292.03" y2="407.3" gradientTransform="matrix(1, 0, 0, 1, 0, 0)" xlink:href="#Dégradé_sans_nom_144"/><linearGradient id="Dégradé_sans_nom_144-3" x1="126.83" y1="215.6" x2="284.55" y2="263.67" gradientTransform="matrix(1, 0, 0, 1, 0, 0)" xlink:href="#Dégradé_sans_nom_144"/><linearGradient id="Dégradé_sans_nom_10" x1="295.13" y1="178.9" x2="156.46" y2="173.58" gradientUnits="userSpaceOnUse"><stop offset="0" stop-color="#4f0599"/><stop offset="1" stop-color="#03d5e0"/></linearGradient><linearGradient id="Dégradé_sans_nom_10-2" x1="265.41" y1="174.17" x2="144.02" y2="172.84" xlink:href="#Dégradé_sans_nom_10"/><linearGradient id="Dégradé_sans_nom_40" x1="228.84" y1="185.46" x2="146.14" y2="195.06" gradientUnits="userSpaceOnUse"><stop offset="0" stop-color="#fff"/><stop offset="1" stop-color="#fff" stop-opacity="0"/></linearGradient><linearGradient id="Dégradé_sans_nom_40-2" x1="229.98" y1="195.29" x2="147.28" y2="204.89" xlink:href="#Dégradé_sans_nom_40"/><linearGradient id="Dégradé_sans_nom_12-3" x1="135.34" y1="251.11" x2="158.93" y2="251.78" xlink:href="#Dégradé_sans_nom_12"/><linearGradient id="Dégradé_sans_nom_12-4" x1="135.19" y1="248.06" x2="169.3" y2="252.49" xlink:href="#Dégradé_sans_nom_12"/><linearGradient id="Dégradé_sans_nom_12-5" x1="134.57" y1="221.87" x2="149.85" y2="242.03" xlink:href="#Dégradé_sans_nom_12"/><linearGradient id="Dégradé_sans_nom_12-6" x1="138.49" y1="221.62" x2="156.76" y2="253.63" xlink:href="#Dégradé_sans_nom_12"/><linearGradient id="Dégradé_sans_nom_12-7" x1="381.48" y1="120.9" x2="398.81" y2="120.9" xlink:href="#Dégradé_sans_nom_12"/><linearGradient id="Dégradé_sans_nom_12-8" x1="381.48" y1="121.67" x2="398.81" y2="121.67" xlink:href="#Dégradé_sans_nom_12"/><linearGradient id="Dégradé_sans_nom_12-9" x1="369.19" y1="120.35" x2="403.3" y2="121.73" xlink:href="#Dégradé_sans_nom_12"/><linearGradient id="Dégradé_sans_nom_12-10" x1="371.58" y1="95.3" x2="379.89" y2="119.44" xlink:href="#Dégradé_sans_nom_12"/><linearGradient id="Dégradé_sans_nom_12-11" x1="372.02" y1="89.97" x2="389.25" y2="151.77" xlink:href="#Dégradé_sans_nom_12"/><linearGradient id="Dégradé_sans_nom_10-3" x1="379.18" y1="297.94" x2="412.02" y2="290.5" xlink:href="#Dégradé_sans_nom_10"/><linearGradient id="Dégradé_sans_nom_10-4" x1="167.62" y1="330.95" x2="404.21" y2="277.34" xlink:href="#Dégradé_sans_nom_10"/><linearGradient id="Dégradé_sans_nom_10-5" x1="488.46" y1="388.28" x2="276.68" y2="312.96" xlink:href="#Dégradé_sans_nom_10"/><linearGradient id="Dégradé_sans_nom_10-6" x1="167.17" y1="332.95" x2="346.55" y2="369.63" xlink:href="#Dégradé_sans_nom_10"/><linearGradient id="Dégradé_sans_nom_10-7" x1="165.08" y1="120.66" x2="240.08" y2="367.99" xlink:href="#Dégradé_sans_nom_10"/><linearGradient id="Dégradé_sans_nom_16" x1="346.52" y1="410.19" x2="409.29" y2="410.19" gradientUnits="userSpaceOnUse"><stop offset="0" stop-color="#4f0599"/><stop offset="1" stop-color="#fc6a65"/></linearGradient><linearGradient id="Dégradé_sans_nom_16-2" x1="431.26" y1="304.79" x2="357.42" y2="441.84" xlink:href="#Dégradé_sans_nom_16"/><linearGradient id="Dégradé_sans_nom_10-8" x1="218.99" y1="306.44" x2="395.32" y2="355.17" xlink:href="#Dégradé_sans_nom_10"/><linearGradient id="Dégradé_sans_nom_10-9" x1="248.83" y1="275.39" x2="248.87" y2="275.39" xlink:href="#Dégradé_sans_nom_10"/><linearGradient id="Dégradé_sans_nom_10-10" x1="248.6" y1="275.27" x2="248.83" y2="275.27" xlink:href="#Dégradé_sans_nom_10"/><linearGradient id="Dégradé_sans_nom_144-4" x1="282.25" y1="367.16" x2="291.11" y2="137.36" gradientTransform="matrix(1, 0, 0, 1, 0, 0)" xlink:href="#Dégradé_sans_nom_144"/><linearGradient id="Dégradé_sans_nom_10-11" x1="334.09" y1="323.68" x2="236.62" y2="237.43" xlink:href="#Dégradé_sans_nom_10"/><linearGradient id="Dégradé_sans_nom_10-12" x1="351.49" y1="268.8" x2="237.41" y2="284.52" xlink:href="#Dégradé_sans_nom_10"/><linearGradient id="Dégradé_sans_nom_144-5" x1="233.94" y1="241.22" x2="336.95" y2="273.11" gradientTransform="matrix(1, 0, 0, 1, 0, 0)" xlink:href="#Dégradé_sans_nom_144"/><linearGradient id="Dégradé_sans_nom_144-6" x1="231.46" y1="249.23" x2="334.47" y2="281.13" gradientTransform="matrix(1, 0, 0, 1, 0, 0)" xlink:href="#Dégradé_sans_nom_144"/><linearGradient id="Dégradé_sans_nom_144-7" x1="237.82" y1="228.69" x2="340.83" y2="260.59" gradientTransform="matrix(1, 0, 0, 1, 0, 0)" xlink:href="#Dégradé_sans_nom_144"/><linearGradient id="Dégradé_sans_nom_144-8" x1="229.42" y1="255.82" x2="332.43" y2="287.72" gradientTransform="matrix(1, 0, 0, 1, 0, 0)" xlink:href="#Dégradé_sans_nom_144"/><linearGradient id="Dégradé_sans_nom_144-9" x1="242.45" y1="240.98" x2="370.93" y2="275.1" gradientTransform="matrix(1, 0, 0, 1, 0, 0)" xlink:href="#Dégradé_sans_nom_144"/><linearGradient id="Dégradé_sans_nom_144-10" x1="240.29" y1="249.11" x2="368.77" y2="283.22" gradientTransform="matrix(1, 0, 0, 1, 0, 0)" xlink:href="#Dégradé_sans_nom_144"/><linearGradient id="Dégradé_sans_nom_144-11" x1="238.28" y1="256.69" x2="366.76" y2="290.81" gradientTransform="matrix(1, 0, 0, 1, 0, 0)" xlink:href="#Dégradé_sans_nom_144"/><linearGradient id="Dégradé_sans_nom_144-12" x1="231.6" y1="237.41" x2="309.8" y2="264.43" gradientTransform="matrix(1, 0, 0, 1, 0, 0)" xlink:href="#Dégradé_sans_nom_144"/><linearGradient id="Dégradé_sans_nom_144-13" x1="229.02" y1="244.86" x2="307.22" y2="271.89" gradientTransform="matrix(1, 0, 0, 1, 0, 0)" xlink:href="#Dégradé_sans_nom_144"/><linearGradient id="Dégradé_sans_nom_144-14" x1="236.01" y1="224.66" x2="314.2" y2="251.68" gradientTransform="matrix(1, 0, 0, 1, 0, 0)" xlink:href="#Dégradé_sans_nom_144"/><linearGradient id="Dégradé_sans_nom_144-15" x1="226.24" y1="252.92" x2="304.44" y2="279.95" gradientTransform="matrix(1, 0, 0, 1, 0, 0)" xlink:href="#Dégradé_sans_nom_144"/><linearGradient id="Dégradé_sans_nom_144-16" x1="241.64" y1="234.24" x2="347.97" y2="275" gradientTransform="matrix(1, 0, 0, 1, 0, 0)" xlink:href="#Dégradé_sans_nom_144"/><linearGradient id="Dégradé_sans_nom_144-17" x1="238.78" y1="241.69" x2="345.11" y2="282.45" gradientTransform="matrix(1, 0, 0, 1, 0, 0)" xlink:href="#Dégradé_sans_nom_144"/><linearGradient id="Dégradé_sans_nom_144-18" x1="236.28" y1="248.2" x2="342.61" y2="288.96" gradientTransform="matrix(1, 0, 0, 1, 0, 0)" xlink:href="#Dégradé_sans_nom_144"/><linearGradient id="Dégradé_sans_nom_144-19" x1="223.56" y1="143.12" x2="200.22" y2="184.47" gradientTransform="translate(-1.45 1.84) rotate(-0.51)" xlink:href="#Dégradé_sans_nom_144"/><linearGradient id="Dégradé_sans_nom_10-13" x1="334.42" y1="198.23" x2="375.62" y2="198.23" xlink:href="#Dégradé_sans_nom_10"/><linearGradient id="Dégradé_sans_nom_12-12" x1="351.5" y1="180.66" x2="367.75" y2="203.7" gradientTransform="translate(366.97 -216.51) rotate(61.22)" xlink:href="#Dégradé_sans_nom_12"/><linearGradient id="Dégradé_sans_nom_144-20" x1="396.08" y1="209.7" x2="381.6" y2="244.56" gradientTransform="matrix(1, 0, 0, 1, 0, 0)" xlink:href="#Dégradé_sans_nom_144"/><linearGradient id="Dégradé_sans_nom_10-14" x1="377.05" y1="230.68" x2="235.27" y2="188.6" xlink:href="#Dégradé_sans_nom_10"/><linearGradient id="Dégradé_sans_nom_10-15" x1="384.09" y1="206.96" x2="242.32" y2="164.87" xlink:href="#Dégradé_sans_nom_10"/><linearGradient id="Dégradé_sans_nom_10-16" x1="364.62" y1="272.54" x2="222.85" y2="230.45" xlink:href="#Dégradé_sans_nom_10"/><linearGradient id="Dégradé_sans_nom_144-21" x1="268.75" y1="171.46" x2="508.65" y2="193.16" gradientTransform="matrix(1, 0, 0, 1, 0, 0)" xlink:href="#Dégradé_sans_nom_144"/><linearGradient id="Dégradé_sans_nom_144-22" x1="261.74" y1="248.86" x2="501.65" y2="270.57" gradientTransform="matrix(1, 0, 0, 1, 0, 0)" xlink:href="#Dégradé_sans_nom_144"/><linearGradient id="Dégradé_sans_nom_10-17" x1="375.06" y1="237.39" x2="233.29" y2="195.3" xlink:href="#Dégradé_sans_nom_10"/><linearGradient id="Dégradé_sans_nom_10-18" x1="404.85" y1="209.68" x2="273.48" y2="222.97" xlink:href="#Dégradé_sans_nom_10"/><linearGradient id="Dégradé_sans_nom_10-19" x1="374.59" y1="238.95" x2="232.82" y2="196.86" xlink:href="#Dégradé_sans_nom_10"/><linearGradient id="Dégradé_sans_nom_10-20" x1="404.31" y1="204.39" x2="272.95" y2="217.68" xlink:href="#Dégradé_sans_nom_10"/><linearGradient id="Dégradé_sans_nom_144-23" x1="288.27" y1="214.39" x2="573.81" y2="272.65" gradientTransform="matrix(1, 0, 0, 1, 0, 0)" xlink:href="#Dégradé_sans_nom_144"/><linearGradient id="Dégradé_sans_nom_144-24" x1="299.58" y1="216.13" x2="477.68" y2="226.98" gradientTransform="translate(465.35 -134.1) rotate(78.64)" xlink:href="#Dégradé_sans_nom_144"/><linearGradient id="Dégradé_sans_nom_12-13" x1="210.36" y1="224.22" x2="324.67" y2="217.35" gradientTransform="translate(467 -134.39) rotate(78.64)" xlink:href="#Dégradé_sans_nom_12"/><linearGradient id="Dégradé_sans_nom_10-21" x1="441.03" y1="183.36" x2="376.65" y2="185.72" xlink:href="#Dégradé_sans_nom_10"/><linearGradient id="Dégradé_sans_nom_10-22" x1="497.56" y1="178.62" x2="391.82" y2="188.37" xlink:href="#Dégradé_sans_nom_10"/><linearGradient id="Dégradé_sans_nom_40-3" x1="347.99" y1="189.06" x2="219.95" y2="238.9" xlink:href="#Dégradé_sans_nom_40"/><linearGradient id="Dégradé_sans_nom_40-4" x1="354.04" y1="204.6" x2="226" y2="254.45" xlink:href="#Dégradé_sans_nom_40"/><linearGradient id="Dégradé_sans_nom_40-5" x1="355.35" y1="199.1" x2="307.94" y2="222.03" xlink:href="#Dégradé_sans_nom_40"/><linearGradient id="Dégradé_sans_nom_40-6" x1="356.85" y1="202.21" x2="309.44" y2="225.14" xlink:href="#Dégradé_sans_nom_40"/><linearGradient id="Dégradé_sans_nom_10-23" x1="320.63" y1="171.1" x2="244.2" y2="163.35" xlink:href="#Dégradé_sans_nom_10"/><linearGradient id="Dégradé_sans_nom_10-24" x1="322.58" y1="171.34" x2="221.34" y2="164.69" xlink:href="#Dégradé_sans_nom_10"/><linearGradient id="Dégradé_sans_nom_10-25" x1="241.49" y1="160.94" x2="252.32" y2="160.94" gradientTransform="matrix(0.95, 0.32, -0.32, 0.95, 71.1, -68.02)" xlink:href="#Dégradé_sans_nom_10"/><linearGradient id="Dégradé_sans_nom_144-25" x1="238.86" y1="151.12" x2="349.4" y2="229.54" gradientTransform="matrix(1, 0, 0, 1, 0, 0)" xlink:href="#Dégradé_sans_nom_144"/><linearGradient id="Dégradé_sans_nom_10-26" x1="248.6" y1="158" x2="301.63" y2="195.62" xlink:href="#Dégradé_sans_nom_10"/><linearGradient id="Dégradé_sans_nom_10-27" x1="305.58" y1="161.2" x2="247.84" y2="164.45" xlink:href="#Dégradé_sans_nom_10"/><linearGradient id="Dégradé_sans_nom_144-26" x1="342.24" y1="137.94" x2="490.21" y2="106.34" gradientTransform="matrix(1, 0, 0, 1, 0, 0)" xlink:href="#Dégradé_sans_nom_144"/><linearGradient id="Dégradé_sans_nom_144-27" x1="351.6" y1="135.22" x2="539.75" y2="109.23" gradientTransform="matrix(1, 0, 0, 1, 0, 0)" xlink:href="#Dégradé_sans_nom_144"/><linearGradient id="Dégradé_sans_nom_12-14" x1="381.69" y1="113.18" x2="417.02" y2="126.7" xlink:href="#Dégradé_sans_nom_12"/><linearGradient id="Dégradé_sans_nom_12-15" x1="383.96" y1="113.7" x2="402.4" y2="119.29" xlink:href="#Dégradé_sans_nom_12"/><linearGradient id="Dégradé_sans_nom_12-16" x1="397.87" y1="120.58" x2="410.91" y2="120.58" xlink:href="#Dégradé_sans_nom_12"/><linearGradient id="Dégradé_sans_nom_12-17" x1="381.62" y1="132.79" x2="411.42" y2="117.73" xlink:href="#Dégradé_sans_nom_12"/><linearGradient id="Dégradé_sans_nom_144-28" x1="287.76" y1="171.46" x2="440.02" y2="148.42" gradientTransform="matrix(1, 0, 0, 1, 0, 0)" xlink:href="#Dégradé_sans_nom_144"/><linearGradient id="Dégradé_sans_nom_144-29" x1="287.95" y1="174.96" x2="402.25" y2="164.77" gradientTransform="matrix(1, 0, 0, 1, 0, 0)" xlink:href="#Dégradé_sans_nom_144"/><linearGradient id="Dégradé_sans_nom_12-18" x1="285.08" y1="150.68" x2="377.53" y2="120.26" xlink:href="#Dégradé_sans_nom_12"/><linearGradient id="Dégradé_sans_nom_144-30" x1="322.06" y1="144.4" x2="335.53" y2="144.4" gradientTransform="matrix(1, 0, 0, 1, 0, 0)" xlink:href="#Dégradé_sans_nom_144"/><linearGradient id="Dégradé_sans_nom_144-31" x1="318.88" y1="148.1" x2="334.18" y2="148.1" gradientTransform="matrix(1, 0, 0, 1, 0, 0)" xlink:href="#Dégradé_sans_nom_144"/><linearGradient id="Dégradé_sans_nom_144-32" x1="314.81" y1="153.55" x2="332.28" y2="153.55" gradientTransform="matrix(1, 0, 0, 1, 0, 0)" xlink:href="#Dégradé_sans_nom_144"/><linearGradient id="Dégradé_sans_nom_144-33" x1="311.1" y1="158.55" x2="330.7" y2="158.55" gradientTransform="matrix(1, 0, 0, 1, 0, 0)" xlink:href="#Dégradé_sans_nom_144"/><linearGradient id="Dégradé_sans_nom_144-34" x1="307.78" y1="163.34" x2="329.25" y2="163.34" gradientTransform="matrix(1, 0, 0, 1, 0, 0)" xlink:href="#Dégradé_sans_nom_144"/><linearGradient id="Dégradé_sans_nom_144-35" x1="295.32" y1="130.55" x2="367.53" y2="164.96" gradientTransform="matrix(1, 0, 0, 1, 0, 0)" xlink:href="#Dégradé_sans_nom_144"/><linearGradient id="Dégradé_sans_nom_144-36" x1="292.97" y1="135.47" x2="365.19" y2="169.88" gradientTransform="matrix(1, 0, 0, 1, 0, 0)" xlink:href="#Dégradé_sans_nom_144"/><linearGradient id="Dégradé_sans_nom_144-37" x1="290.12" y1="141.46" x2="362.34" y2="175.86" gradientTransform="matrix(1, 0, 0, 1, 0, 0)" xlink:href="#Dégradé_sans_nom_144"/><linearGradient id="Dégradé_sans_nom_144-38" x1="297.23" y1="126.54" x2="369.45" y2="160.95" gradientTransform="matrix(1, 0, 0, 1, 0, 0)" xlink:href="#Dégradé_sans_nom_144"/><linearGradient id="Dégradé_sans_nom_144-39" x1="284.82" y1="152.59" x2="357.03" y2="187" gradientTransform="matrix(1, 0, 0, 1, 0, 0)" xlink:href="#Dégradé_sans_nom_144"/><linearGradient id="Dégradé_sans_nom_144-40" x1="287.44" y1="147.08" x2="359.66" y2="181.49" gradientTransform="matrix(1, 0, 0, 1, 0, 0)" xlink:href="#Dégradé_sans_nom_144"/><linearGradient id="Dégradé_sans_nom_144-41" x1="309.6" y1="135.65" x2="369.12" y2="161.05" gradientTransform="matrix(1, 0, 0, 1, 0, 0)" xlink:href="#Dégradé_sans_nom_144"/><linearGradient id="Dégradé_sans_nom_144-42" x1="307.78" y1="139.93" x2="367.29" y2="165.33" gradientTransform="matrix(1, 0, 0, 1, 0, 0)" xlink:href="#Dégradé_sans_nom_144"/><linearGradient id="Dégradé_sans_nom_144-43" x1="305.21" y1="145.95" x2="364.72" y2="171.35" gradientTransform="matrix(1, 0, 0, 1, 0, 0)" xlink:href="#Dégradé_sans_nom_144"/><linearGradient id="Dégradé_sans_nom_144-44" x1="302.78" y1="151.63" x2="362.3" y2="177.03" gradientTransform="matrix(1, 0, 0, 1, 0, 0)" xlink:href="#Dégradé_sans_nom_144"/><linearGradient id="Dégradé_sans_nom_144-45" x1="300.61" y1="156.72" x2="360.13" y2="182.12" gradientTransform="matrix(1, 0, 0, 1, 0, 0)" xlink:href="#Dégradé_sans_nom_144"/><linearGradient id="Dégradé_sans_nom_144-46" x1="299.07" y1="134.32" x2="343.04" y2="151.49" gradientTransform="matrix(1, 0, 0, 1, 0, 0)" xlink:href="#Dégradé_sans_nom_144"/><linearGradient id="Dégradé_sans_nom_144-47" x1="297.04" y1="139.54" x2="341.01" y2="156.7" gradientTransform="matrix(1, 0, 0, 1, 0, 0)" xlink:href="#Dégradé_sans_nom_144"/><linearGradient id="Dégradé_sans_nom_144-48" x1="294.64" y1="145.66" x2="338.62" y2="162.83" gradientTransform="matrix(1, 0, 0, 1, 0, 0)" xlink:href="#Dégradé_sans_nom_144"/><linearGradient id="Dégradé_sans_nom_144-49" x1="300.49" y1="130.68" x2="344.46" y2="147.85" gradientTransform="matrix(1, 0, 0, 1, 0, 0)" xlink:href="#Dégradé_sans_nom_144"/><linearGradient id="Dégradé_sans_nom_144-50" x1="289.81" y1="158.04" x2="333.79" y2="175.2" gradientTransform="matrix(1, 0, 0, 1, 0, 0)" xlink:href="#Dégradé_sans_nom_144"/><linearGradient id="Dégradé_sans_nom_144-51" x1="292.47" y1="151.24" x2="336.44" y2="168.41" gradientTransform="matrix(1, 0, 0, 1, 0, 0)" xlink:href="#Dégradé_sans_nom_144"/><linearGradient id="Dégradé_sans_nom_144-52" x1="297.61" y1="134.35" x2="380.24" y2="160.49" gradientTransform="matrix(1, 0, 0, 1, 0, 0)" xlink:href="#Dégradé_sans_nom_144"/><linearGradient id="Dégradé_sans_nom_144-53" x1="296.37" y1="138.29" x2="379" y2="164.43" gradientTransform="matrix(1, 0, 0, 1, 0, 0)" xlink:href="#Dégradé_sans_nom_144"/><linearGradient id="Dégradé_sans_nom_144-54" x1="294.39" y1="144.55" x2="377.01" y2="170.69" gradientTransform="matrix(1, 0, 0, 1, 0, 0)" xlink:href="#Dégradé_sans_nom_144"/><linearGradient id="Dégradé_sans_nom_144-55" x1="292.54" y1="150.38" x2="375.17" y2="176.52" gradientTransform="matrix(1, 0, 0, 1, 0, 0)" xlink:href="#Dégradé_sans_nom_144"/><linearGradient id="Dégradé_sans_nom_144-56" x1="290.75" y1="156.06" x2="373.37" y2="182.2" gradientTransform="matrix(1, 0, 0, 1, 0, 0)" xlink:href="#Dégradé_sans_nom_144"/><linearGradient id="Dégradé_sans_nom_10-28" x1="382.15" y1="154.16" x2="327.22" y2="103.5" xlink:href="#Dégradé_sans_nom_10"/><linearGradient id="Dégradé_sans_nom_10-29" x1="394.55" y1="168.42" x2="334.59" y2="115.85" xlink:href="#Dégradé_sans_nom_10"/><linearGradient id="Dégradé_sans_nom_144-57" x1="324.7" y1="103.48" x2="535.89" y2="282.47" gradientTransform="matrix(1, 0, 0, 1, 0, 0)" xlink:href="#Dégradé_sans_nom_144"/><linearGradient id="Dégradé_sans_nom_144-58" x1="327.52" y1="110.13" x2="342.25" y2="110.13" gradientTransform="matrix(1, 0, 0, 1, 0, 0)" xlink:href="#Dégradé_sans_nom_144"/><linearGradient id="Dégradé_sans_nom_144-59" x1="299.53" y1="105.88" x2="615.28" y2="109.72" gradientTransform="translate(32.7 -72.78) rotate(13.07)" xlink:href="#Dégradé_sans_nom_144"/><linearGradient id="Dégradé_sans_nom_12-19" x1="293.62" y1="106.6" x2="333.2" y2="106.3" gradientTransform="translate(32.7 -72.78) rotate(13.07)" xlink:href="#Dégradé_sans_nom_12"/><linearGradient id="Dégradé_sans_nom_40-7" x1="481.07" y1="154.67" x2="378.5" y2="171.06" xlink:href="#Dégradé_sans_nom_40"/><linearGradient id="Dégradé_sans_nom_40-8" x1="483.26" y1="168.39" x2="380.7" y2="184.78" xlink:href="#Dégradé_sans_nom_40"/><linearGradient id="Dégradé_sans_nom_12-20" x1="167.14" y1="250.62" x2="193" y2="248.95" xlink:href="#Dégradé_sans_nom_12"/><linearGradient id="Dégradé_sans_nom_12-21" x1="162.28" y1="251.51" x2="189.86" y2="249.4" xlink:href="#Dégradé_sans_nom_12"/><linearGradient id="Dégradé_sans_nom_144-60" x1="390.53" y1="288.66" x2="484.56" y2="271.16" gradientTransform="matrix(1, 0, 0, 1, 0, 0)" xlink:href="#Dégradé_sans_nom_144"/><linearGradient id="Dégradé_sans_nom_144-61" x1="343.3" y1="414.92" x2="416.3" y2="401.33" gradientTransform="matrix(1, 0, 0, 1, 0, 0)" xlink:href="#Dégradé_sans_nom_144"/></defs><g id="Calque_12" data-name="Calque 12"><ellipse class="cls-2" cx="272.1" cy="312.4" rx="133.16" ry="201.8" transform="translate(-118.25 173.62) rotate(-29.37)"/><path class="cls-3" d="M210.34,109.25a120.21,120.21,0,0,0-60.19,22.64,125,125,0,0,0-23.69,22.32c-5.5,6.78-14.1,16.61-12.17,26,0,.1.15.08.18,0,14.37-38.93,56.22-64.37,96-70C211,110.1,210.86,109.21,210.34,109.25Z"/><path class="cls-4" d="M424.06,481.6c-20.9,16.8-44.29,29.14-70.67,34.69s-52.73,3.59-78.71-2.9c0,0,0,0,0,0,48.6,18.66,112.53,4.69,150-31.23C425,481.81,424.46,481.28,424.06,481.6Z"/><path class="cls-5" d="M200.82,460.63c-21.47-8-35.7-28.09-47.45-46.81,0-.05-.12,0-.08.05,12.5,19.12,24.83,39,47.45,47.08C200.94,461,201,460.7,200.82,460.63Z"/><path class="cls-6" d="M433.46,264.37c-3.91-14.17-9-27.35-19.14-38.28-5-5.37-9.6-11.13-14.75-16.32-3.78-3.82-8.26-7.62-13.78-8.27-.05,0-.07.07,0,.09,11.75,5.67,18.82,16.17,27.48,25.56,9.95,10.77,14.58,23.88,19.6,37.39A.32.32,0,0,0,433.46,264.37Z"/><path class="cls-7" d="M274.1,458.35a.05.05,0,1,0,0,.1A.05.05,0,0,0,274.1,458.35Z"/><path class="cls-7" d="M371.58,440.67c-12.61,10.52-27,18.35-43.19,21.72-16.36,3.41-32.28,1.71-48.28-2.6-.1,0-.17.13-.07.17,29.46,13.48,70,4.52,92.14-18.69C372.56,440.87,372,440.33,371.58,440.67Z"/><path class="cls-7" d="M224,421.54c-35.2-26.12-61.1-63.49-72.2-106a.08.08,0,0,0-.16,0c10,42.78,35.79,81.41,72.23,106.17C224,421.86,224.09,421.64,224,421.54Z"/><path class="cls-7" d="M219.83,134.87c-18.74,3.27-36.66,11.38-50.37,24.78-11.34,11.07-23.81,29.64-21,46.36,0,.16.27.11.28,0,.92-38.61,37.07-62.71,71.25-70.53C220.36,135.35,220.2,134.81,219.83,134.87Z"/><path class="cls-7" d="M207.72,160c-11.33,2.76-19.4,10.61-24.63,20.71,0,.08.08.15.12.07,5.17-9.74,14.51-16.49,24.62-20.37A.21.21,0,0,0,207.72,160Z"/><path class="cls-7" d="M394.7,427.44a94.67,94.67,0,0,1-54.95,53.35s0,.08,0,.07a89.05,89.05,0,0,0,55.13-53.37C395,427.36,394.75,427.31,394.7,427.44Z"/><path class="cls-7" d="M303.36,474.5c-42.1-3.73-83-26.16-109.41-59.21,0-.05-.11,0-.07.07,13.4,16.5,28.84,30.22,47.48,40.62s40.54,18.43,62,18.75C303.51,474.74,303.51,474.51,303.36,474.5Z"/><path class="cls-7" d="M388.07,281.63A275.55,275.55,0,0,0,355.7,236.3s-.11,0-.08.06c10.94,14.69,22,29.11,31.24,45,9.53,16.43,16.08,33.53,22.13,51.45a.19.19,0,0,0,.36-.1C405.74,314.81,397.16,297.33,388.07,281.63Z"/><path class="cls-7" d="M156.16,265.81c-.77-14.12.1-28.1.19-42.21,0,0,0,0,0,0-2.12,14.12-1.68,29-.85,43.17a272.33,272.33,0,0,0,5.72,42.85.13.13,0,0,0,.25-.06A383.21,383.21,0,0,1,156.16,265.81Z"/><path class="cls-7" d="M134.65,243c0-.93,0-1.86,0-2.79C134.62,241.13,134.63,242.06,134.65,243Z"/><path class="cls-7" d="M134.68,231.56a.05.05,0,0,0-.1,0c0,2.88,0,5.76,0,8.64Q134.57,235.88,134.68,231.56Z"/><path class="cls-7" d="M134.65,243c.39,22.47,2.39,44.67,7.83,66.67.05.21.36.12.32-.09C138.42,287.74,135.09,265.34,134.65,243Z"/><ellipse class="cls-8" cx="272.1" cy="312.4" rx="93.71" ry="142.01" transform="translate(-118.25 173.62) rotate(-29.37)"/><ellipse class="cls-9" cx="271.01" cy="312.4" rx="93.71" ry="142.01" transform="translate(-118.39 173.08) rotate(-29.37)"/><path class="cls-10" d="M566.93,295.22V0H372.3L201.15,188.64C156,214,150.67,290,189.14,358.36s106.22,103.18,151.32,77.8a63.27,63.27,0,0,0,11.67-8.47h0Z"/><circle class="cls-11" cx="267.77" cy="368.88" r="34.75"/><circle class="cls-12" cx="281.06" cy="356.18" r="10.17"/><circle class="cls-13" cx="207.44" cy="281.39" r="13.84"/><path class="cls-7" d="M227.62,194.8a1.18,1.18,0,0,0,0,2.36A1.18,1.18,0,0,0,227.62,194.8Z"/><path class="cls-7" d="M221.2,221.92a.57.57,0,0,0-.3-.31c-.71-.3-1.64.37-1.15,1.16a.82.82,0,0,0,.23.26l.07,0C220.84,223.56,221.51,222.63,221.2,221.92Z"/><path class="cls-7" d="M195.44,318.1a.61.61,0,0,0,0,1.21A.61.61,0,0,0,195.44,318.1Z"/><path class="cls-7" d="M324.81,362.15a.86.86,0,0,0,0,1.71A.86.86,0,0,0,324.81,362.15Z"/><path class="cls-7" d="M341,261.92l.15.13a.74.74,0,0,0,1,0l.14-.13C344.42,260.14,338.88,260.14,341,261.92Z"/><path class="cls-7" d="M354.94,329.32a1.35,1.35,0,0,0,0,2.69A1.35,1.35,0,0,0,354.94,329.32Z"/><path class="cls-7" d="M234,251.72a.53.53,0,0,0,0,1.06A.53.53,0,0,0,234,251.72Z"/><path class="cls-7" d="M273.86,407.11a.2.2,0,0,0,0,.4A.2.2,0,0,0,273.86,407.11Z"/><path class="cls-14" d="M146.75,234.59c-3.79.56-8.24,3.2-12,1.77a1,1,0,0,1-.64-.74,2.1,2.1,0,0,0-.39,1.81c.55,1.83,3.88,1.09,5,1,5.82-.58,11.61-1.63,17.47-1.7,1.7,0,6.24,1.25,7.47-.58a1.29,1.29,0,0,0,.25-.75A48.52,48.52,0,0,0,146.75,234.59Z"/><path class="cls-15" d="M163.46,234.55l.47,0c.23,0,.23-.3,0-.37-7.75-3.2-18.7-5.12-26.49-1.21a9.64,9.64,0,0,0-3.39,2.6,1,1,0,0,0,.64.74c3.77,1.43,8.22-1.21,12-1.77a48.52,48.52,0,0,1,17.15.79A1,1,0,0,0,163.46,234.55Z"/><path class="cls-16" d="M171.08,238.65c3.84-.21,7.28-6.73,10.28-16.38a22.94,22.94,0,0,1-6.19,0,25.46,25.46,0,0,1-14-6.56,81.37,81.37,0,0,0-1.24,9.67C160,226.84,161.1,239.21,171.08,238.65Z"/><path class="cls-17" d="M171.08,238.65c-10,.56-11.11-11.81-11.14-13.31-.61,9.85,1.55,16.92,9.14,18.93,13.68,3.64,19.24-8.56,21.76-25a30,30,0,0,1-9.48,3C178.36,231.92,174.92,238.44,171.08,238.65Z"/><path class="cls-18" d="M181.36,222.27c7.93-25.48,12.8-72.75,14.08-83.14,1.77-14.23-4.36-13.22-6.72-10.81-6.21,7.89-12.39,26.82-18.09,49.28-3.36,13.28-7.4,26.72-9.45,38.07a25.46,25.46,0,0,0,14,6.56A22.94,22.94,0,0,0,181.36,222.27Z"/><path class="cls-19" d="M195.44,124.43c-2.22-.39-4.47,1-6.72,3.89,2.36-2.41,8.49-3.42,6.72,10.81-1.28,10.39-6.15,57.66-14.08,83.14a30,30,0,0,0,9.48-3c.7-4.58,1.16-9.49,1.5-14.47C193.89,182,208.07,126.65,195.44,124.43Z"/><path class="cls-20" d="M171.4,186.5a.44.44,0,0,0-.51-.07c-1.82.77-1.86,4.12-2.24,5.81s-1.74,4.3-.36,5.79a.64.64,0,0,0,.63.17c2-.61,2.1-3.83,2.49-5.61S172.87,187.79,171.4,186.5Z"/><path class="cls-21" d="M168.69,200.92a1,1,0,0,0-1.53-.19,4.38,4.38,0,0,0-.87,2.72,1.15,1.15,0,0,0,1,1.13,1.17,1.17,0,0,0,1.27-.83A4.13,4.13,0,0,0,168.69,200.92Z"/><path class="cls-22" d="M157.14,250.22c-1.08,3.43.81,6.5.11,9.7a2.7,2.7,0,0,1-2.1,2.28c1.4.69,2.88.65,3.6-1.41a11.48,11.48,0,0,0,.05-3.31,23.33,23.33,0,0,1,1-7.09c1.2-3.57,3.54-5.85,6.17-8.38a.85.85,0,0,0,.21-.91C162.12,242.92,158.56,245.71,157.14,250.22Z"/><path class="cls-23" d="M165.38,240.45a10.26,10.26,0,0,0-5.79,2.47,16,16,0,0,0-6.31,6.18c-2,3.79-3.51,8.23-.1,11.64a7.64,7.64,0,0,0,2,1.46,2.7,2.7,0,0,0,2.1-2.28c.7-3.2-1.19-6.27-.11-9.7,1.42-4.51,5-7.3,9.09-9.12A.89.89,0,0,0,165.38,240.45Z"/><path class="cls-24" d="M151.39,237c-4.42,1.12-7.12,3.95-10.77,6.36-1.63,1.07-4.86,2.34-5.94.64a2.36,2.36,0,0,0,.47,2.12c2.68,3.3,11.34-3.33,13.56-4.11,3.93-1.38,8-1.75,12-2.79,1.4-.37,2.64-.4,3.11-1.89a.64.64,0,0,0,0-.41C159.63,236.51,155.64,236,151.39,237Z"/><path class="cls-25" d="M163.5,236.54a9.84,9.84,0,0,0-4.36-.74c-5.88-.59-12.62-.1-17.73,2.11-1.52.66-6.1,3.42-6.73,6.11,1.08,1.7,4.31.43,5.94-.64,3.65-2.41,6.35-5.24,10.77-6.36,4.25-1.07,8.24-.51,12.42-.08A.63.63,0,0,0,163.5,236.54Z"/><path class="cls-26" d="M397.85,123.16a8.87,8.87,0,0,0,.95-3.49,7,7,0,0,0,0-1,25.3,25.3,0,0,1-.69,3.6C398,122.54,397.94,122.85,397.85,123.16Z"/><path class="cls-27" d="M385.85,124a7.07,7.07,0,0,1,4.41-9.45h.05l.25-.18h0l.09,0a6.8,6.8,0,0,1,1.4-.63q-.41,0-.81.06c-3.57.43-9.8,2-9.76,6.64,0,3.76,4.41,7.49,8,8.27a1.3,1.3,0,0,1,.11.19,1,1,0,0,0,1.25.71,7.59,7.59,0,0,0,1.74-.71C389.77,129,386.82,126.55,385.85,124Z"/><path d="M398.77,118.64a5.48,5.48,0,0,0-.55-3c-1.11-2.22-3.87-2.69-6.17-2C395.5,113.55,398.44,115.06,398.77,118.64Z"/><path d="M392.57,128.88a4.3,4.3,0,0,0,2.66-1.06,9.16,9.16,0,0,0,2.62-4.66A13.14,13.14,0,0,1,392.57,128.88Z"/><path class="cls-28" d="M397.85,123.16c.09-.31.17-.62.23-.92a25.3,25.3,0,0,0,.69-3.6c-.33-3.58-3.27-5.09-6.72-4.92a6.8,6.8,0,0,0-1.4.63l-.09,0h0l-.25.18h-.05a7.07,7.07,0,0,0-4.41,9.45c1,2.53,3.92,5,6.72,4.86A13.14,13.14,0,0,0,397.85,123.16Z"/><path class="cls-29" d="M383.43,110a35.85,35.85,0,0,0-10.52-.95c-2.64.19-5.19,1.14-7.81,1.3-2.28.13-2.93-.62-2.72-1.61-1.71,2.26.27,5.31,4.31,5.16,5.12-.2,9.95-2,15.17-1.77a24.89,24.89,0,0,1,5.82,1,11.07,11.07,0,0,0,2.72,1,2.7,2.7,0,0,0,1.72-.42,3.8,3.8,0,0,0,.71-.78c-.54-.22-1.05-.45-1.44-.58A81.43,81.43,0,0,0,383.43,110Z"/><path class="cls-30" d="M392.41,110.61l0,0a.16.16,0,0,0,.16-.27c-7.35-5.32-19.05-6.25-27.6-3.36a5.5,5.5,0,0,0-2.64,1.73c-.21,1,.44,1.74,2.72,1.61,2.62-.16,5.17-1.11,7.81-1.3a35.85,35.85,0,0,1,10.52.95,81.43,81.43,0,0,1,8,2.32c.39.13.9.36,1.44.58A1.59,1.59,0,0,0,392.41,110.61Z"/><path class="cls-31" d="M404,282h5.4a8.84,8.84,0,0,1,0,8.53C407,295.33,400,303.49,400,303.49l1.22-14Z"/><path class="cls-32" d="M307.73,287.4s79.85-6.25,87.53-6,9.45,4.09,8.56,6.74-7.09,1.77-15.36,2.66-87.72,5-87.72,5Z"/><path class="cls-33" d="M399.55,282H404s3.34,2.54,1.27,8.75h2.95s2.36-7.46,1.18-8.75c0,0,4.43,4.62-.88,13.77s-48.74,118.81-48.74,118.81l-10.94,2.15Z"/><path class="cls-34" d="M247,288.13a65.65,65.65,0,0,0,8.86,1.21c3.61.12,6.94,6.77,6.72,12.75s-2.83,20.82-8.28,36.77-27.51,68.06-27.51,68.06l-6.17-6.08,12.49-48.91Z"/><path class="cls-35" d="M247,288.13c-4.44-.59-4.08,4.58-4.56,10.64s-4.6,24.37-8.88,38.1-18.83,57.6-18.83,57.6l5.89,6.37s20.62-57,24.9-72.24S254.68,289.17,247,288.13Z"/><path class="cls-36" d="M409.29,395.79s-31.76,8.27-47.11,11.52-15.66,17.28-15.66,17.28l51.77-23.75,6.86-1.94Z"/><path class="cls-37" d="M342.39,427.69s.29-14,15.65-17.28,47.11-11.51,47.11-11.51Z"/><path class="cls-38" d="M399.55,282c-4.33-.3-6.36,11.71-9.61,18.2s-17.13,42.24-21.27,51.4-14.47,46.66-20.38,60.84c-2.36,5.61,2.28,5.32,4.1,1.48S400,296.7,400.87,294.34,407.67,282.6,399.55,282Z"/><path class="cls-39" d="M248.83,275.38l0,0Z"/><path class="cls-40" d="M248.6,275.16c.08.08.16.14.23.22l-.09-.09A1.79,1.79,0,0,0,248.6,275.16Z"/><path class="cls-41" d="M314,289.46c-3.12.59-29.51,3.84-41.91,3.7s-16.93-11.66-23.23-17.75c4.18,4.12,6.87,11.39,3,20.11a35.87,35.87,0,0,0,4.88.81l2.69,6.43,15.11.73s18.71-.44,28-2.36c10.14-1.36,16.94-12,16.94-12s3.45-5.51,3-10.9C322.53,284.53,317.12,288.88,314,289.46Z"/><path class="cls-42" d="M272.1,293.16c12.4.14,38.79-3.11,41.91-3.7s8.52-4.93,8.5-11.19a9.81,9.81,0,0,0-.54-2.59,1.42,1.42,0,0,0-.17-.49h0a8.74,8.74,0,0,0-1.27-2.08C315.36,266.87,279.77,261.4,266,262c-12.25.52-26.83,3.28-32,11.83,3.59-2.68,6.84-4.26,12.89,0a14.28,14.28,0,0,1,1.62,1.33,1.79,1.79,0,0,1,.14.13l.09.09,0,0C255.17,281.5,259.78,293,272.1,293.16Z"/><path class="cls-43" d="M247,273.83c-6-4.26-9.3-2.68-12.89,0a3.87,3.87,0,0,0-1.43,3.38c.78,12.27,12.44,16.74,19.26,18.31C256.3,285.54,252.13,277.45,247,273.83Z"/><path class="cls-44" d="M289.8,259.1A59.25,59.25,0,0,1,258.5,243l-1.7,5.73a60.28,60.28,0,0,0,28.47,13.8A36.4,36.4,0,0,0,289.8,259.1Z"/><path class="cls-45" d="M281.22,264.74h0a62.21,62.21,0,0,1-25.4-12.81l-1.56,5.28a59.91,59.91,0,0,0,19.48,10A37.85,37.85,0,0,0,281.22,264.74Z"/><path class="cls-46" d="M292.53,256.44A73.15,73.15,0,0,0,302,243.37c1-1.75,2.1-3.67,3.34-5.47l-42.22-10.31-3.59,12.1C264,244.37,275.63,254.43,292.53,256.44Z"/><path class="cls-47" d="M267.16,268.11a61.49,61.49,0,0,1-13.8-7.79l-.1.35c-.63,1.78-.18,3.77,1.1,5.76A33,33,0,0,0,267.16,268.11Z"/><path class="cls-48" d="M292.53,256.44c-16.9-2-28.49-12.07-33-16.75l-1,3.31a59.25,59.25,0,0,0,31.3,16.1C290.75,258.25,291.66,257.37,292.53,256.44Z"/><path class="cls-49" d="M285.27,262.53a60.28,60.28,0,0,1-28.47-13.8l-1,3.19a62.21,62.21,0,0,0,25.4,12.81A31.69,31.69,0,0,0,285.27,262.53Z"/><path class="cls-50" d="M273.77,267.2a59.91,59.91,0,0,1-19.48-10l-.93,3.12a61.49,61.49,0,0,0,13.8,7.79A40.3,40.3,0,0,0,273.77,267.2Z"/><path class="cls-51" d="M292.75,259.5c-1-.11-2-.25-2.95-.4a36.4,36.4,0,0,1-4.53,3.43,61.56,61.56,0,0,0,6.94.92,104.53,104.53,0,0,0,20.3-.26c.45-1.12,1-2.45,1.5-3.87a77.88,77.88,0,0,1-11,.75A95.91,95.91,0,0,1,292.75,259.5Z"/><path class="cls-52" d="M292,266.45a66.82,66.82,0,0,1-10.74-1.72h0a37.85,37.85,0,0,1-7.45,2.46c9.34,2.84,21.46,4.22,36.21,1.15a17.17,17.17,0,0,0,1.17-2c-2.81.27-6,.44-9.56.44C298.66,266.82,295.46,266.71,292,266.45Z"/><path class="cls-53" d="M292.53,256.44l.54.08a80.82,80.82,0,0,0,22.17-.46c2.56-6.86,5.29-14.44,5.29-14.44L305.3,237.9c-1.24,1.8-2.31,3.72-3.34,5.47A73.15,73.15,0,0,1,292.53,256.44Z"/><path class="cls-54" d="M283.9,279.42c11.34.38,18.62-3.37,23-7.44a81.93,81.93,0,0,1-13.4,1.13,69.29,69.29,0,0,1-25.52-4.68c-.27-.1-.51-.21-.77-.32a33,33,0,0,1-12.8-1.68C258.36,272.67,270.57,279,283.9,279.42Z"/><path class="cls-55" d="M293.07,256.52l-.54-.08c-.87.93-1.78,1.81-2.73,2.66,1,.15,1.95.29,2.95.4a95.91,95.91,0,0,0,10.27.57,77.88,77.88,0,0,0,11-.75c.4-1.05.81-2.14,1.23-3.26A80.82,80.82,0,0,1,293.07,256.52Z"/><path class="cls-56" d="M292.21,263.45a61.56,61.56,0,0,1-6.94-.92,31.69,31.69,0,0,1-4,2.2A66.82,66.82,0,0,0,292,266.45c3.47.26,6.67.37,9.6.37,3.57,0,6.75-.17,9.56-.44.14-.27.26-.53.37-.78.27-.62.61-1.44,1-2.41A104.53,104.53,0,0,1,292.21,263.45Z"/><path class="cls-57" d="M273.77,267.2a40.3,40.3,0,0,1-6.61.91c.26.11.5.22.77.32a69.29,69.29,0,0,0,25.52,4.68,81.93,81.93,0,0,0,13.4-1.13,21.72,21.72,0,0,0,3.13-3.63C295.23,271.42,283.11,270,273.77,267.2Z"/><path class="cls-58" d="M197.36,130.77s-2.37-.57-3.16,1.51,1.14,4,1.14,4l51.06,28.56,2.59-7.47Z"/><path class="cls-59" d="M375.62,185.21c-3.42-2.19-22.8-16-36.76,1.17s8.53,29,18.44,32.17Z"/><ellipse class="cls-60" cx="366.46" cy="201.88" rx="19.02" ry="7.91" transform="translate(13.09 425.88) rotate(-61.22)"/><path class="cls-61" d="M369.88,198.84c-.85-.47-2.46.81-3.58,2.86s-1.35,4.1-.5,4.57l56,21.32v-8.13Z"/><path class="cls-62" d="M319.39,168.44a79.25,79.25,0,0,1,2.72,14.72c.1,1.08.17,2.16.24,3.24l.42.13c8.5,2.66,13.82,6.77,16.58,15.44a38.18,38.18,0,0,1-12.77,41.31c-6.86,5.37-14.8,7.73-23,8.22l-1,2.2c27.28,3.55,33.93-16,40.12-29.66C349.74,208.46,365.56,184.39,319.39,168.44Z"/><path class="cls-63" d="M290.5,180.11a.38.38,0,0,1,.22-.07,114.91,114.91,0,0,1,23.39,4c-.93-9.47-3.2-17-4.89-19-19.55-6.21-38.05-8.46-49.24,23.58-.14.39-.26.76-.39,1.14,10.85-.41,21.41-2.3,30.27-9.58A.53.53,0,0,1,290.5,180.11Z"/><path class="cls-64" d="M290,250.82c1.55.48,3,.9,4.48,1.27l.33-.71C293.22,251.24,291.61,251.05,290,250.82Z"/><path class="cls-65" d="M322.35,186.4c-.07-1.08-.14-2.16-.24-3.24a79.25,79.25,0,0,0-2.72-14.72l-.63-.22c-3.19-1.08-6.38-2.19-9.54-3.2,1.69,2,4,9.53,4.89,19C316.88,184.75,319.63,185.55,322.35,186.4Z"/><path class="cls-66" d="M294.82,251.38l-.33.71a68.42,68.42,0,0,0,8.07,1.61l1-2.2A62.42,62.42,0,0,1,294.82,251.38Z"/><path class="cls-67" d="M317.42,220.37c-4.66,10.91-9.88,22.47-13.85,31.13,8.21-.49,16.15-2.85,23-8.22A38.18,38.18,0,0,0,339.35,202c-2.76-8.67-8.08-12.78-16.58-15.44l-.42-.13C323.08,199,321.33,211.21,317.42,220.37Z"/><path class="cls-68" d="M317.42,220.37c-4.66,10.91-9.88,22.47-13.85,31.13,8.21-.49,16.15-2.85,23-8.22A38.18,38.18,0,0,0,339.35,202c-2.76-8.67-8.08-12.78-16.58-15.44l-.42-.13C323.08,199,321.33,211.21,317.42,220.37Z"/><path class="cls-69" d="M310.06,217.23c4.5-10.55,5.05-23,4.05-33.21a114.91,114.91,0,0,0-23.39-4,.38.38,0,0,0-.22.07.53.53,0,0,0-.64,0c-8.86,7.28-19.42,9.17-30.27,9.58-12.51,36.32-8.36,48.61,29.78,60.88l.64.2c1.6.23,3.21.42,4.81.56C298.88,242.57,304.82,229.48,310.06,217.23Z"/><path class="cls-70" d="M310.06,217.23c4.5-10.55,5.05-23,4.05-33.21a114.91,114.91,0,0,0-23.39-4,.38.38,0,0,0-.22.07.53.53,0,0,0-.64,0c-8.86,7.28-19.42,9.17-30.27,9.58-12.51,36.32-8.36,48.61,29.78,60.88l.64.2c1.6.23,3.21.42,4.81.56C298.88,242.57,304.82,229.48,310.06,217.23Z"/><path class="cls-71" d="M310.06,217.23c-5.24,12.25-11.18,25.34-15.24,34.15a62.42,62.42,0,0,0,8.75.12c4-8.66,9.19-20.22,13.85-31.13,3.91-9.16,5.66-21.39,4.93-34-2.72-.85-5.47-1.65-8.24-2.38C315.11,194.2,314.56,206.68,310.06,217.23Z"/><ellipse class="cls-72" cx="314.54" cy="217.04" rx="16.42" ry="15.39" transform="translate(39.78 482.65) rotate(-78.64)"/><ellipse class="cls-73" cx="315.54" cy="217.9" rx="12.67" ry="11.87" transform="translate(39.74 484.32) rotate(-78.64)"/><path class="cls-74" d="M425.36,154.11c-.92-6.19-1.87-12.83-3.16-19.18a24.47,24.47,0,0,1-6.87,9c4,14.5,6.14,29.81,8.39,44.33a217.31,217.31,0,0,1,2.92,32.9c0,2.83.86,7.77-1.68,9.93a3.82,3.82,0,0,1-1,.59,4.29,4.29,0,0,0,3.15,1.33C433.56,232.31,428.69,176.27,425.36,154.11Z"/><path class="cls-75" d="M426.64,221.13a217.31,217.31,0,0,0-2.92-32.9c-2.25-14.52-4.37-29.83-8.39-44.33a13.77,13.77,0,0,1-5.85,2.61c-7.43,1.33-14-1.37-18.64-4.29a226,226,0,0,0,6,22.8c12,38.69,20.87,61.13,27.2,66.63a3.82,3.82,0,0,0,1-.59C427.5,228.9,426.65,224,426.64,221.13Z"/><path class="cls-76" d="M268.1,219.68c-.66-2.66.24-5.16-.25-7.7a3.54,3.54,0,0,0-1.15-2.11c-2.21-1.77-4.1.5-4.84,2.45a15.8,15.8,0,0,0-.44,10.27c.59,3.71,2.42,7.09,5.94,8.84,1.66.83,3.29.51,3.93-1.35C272.43,226.77,268.83,222.66,268.1,219.68Z"/><path class="cls-77" d="M277.92,234c-.76-1.38-2.43-2.78-4.09-2.24a3.88,3.88,0,0,0-2.51,4.28,3.51,3.51,0,0,0,2.81,2.76,2.72,2.72,0,0,0,3.25-.39A3.5,3.5,0,0,0,277.92,234Z"/><circle class="cls-78" cx="319.05" cy="216.66" r="4.43"/><circle class="cls-79" cx="313.55" cy="223.16" r="2.07"/><path class="cls-80" d="M249.68,178.86c9.39,3.25,22.32-1.26,25.3-11.28,3.52-11.8-8-18.43-18.19-18.23-6.51,2-9.75,7.11-10.84,8.64-2.79,3.91-5,10.32-2.56,16.25A15.58,15.58,0,0,0,249.68,178.86Z"/><path class="cls-81" d="M256.69,185c14,5.09,24.37-5.54,26.14-8.42s9.75-20.16-12.95-26.92c-5.37-1.6-9.68-1.39-13.09-.33,10.23-.2,21.71,6.43,18.19,18.23-3,10-15.91,14.53-25.3,11.28a15.58,15.58,0,0,1-6.29-4.62C245.08,178.42,249.05,182.36,256.69,185Z"/><path class="cls-82" d="M252.57,160.26a9.82,9.82,0,0,1,7.66-4.46c-3.69-1.41-8.22.16-10.78,4-2.92,4.36-2.15,10,1.71,12.58a7.75,7.75,0,0,0,4.64,1.29,7.26,7.26,0,0,1-1.51-.79C250.42,170.25,249.65,164.61,252.57,160.26Z"/><path class="cls-83" d="M263.46,169.16c2.92-4.35,2.15-10-1.72-12.58a7.73,7.73,0,0,0-1.51-.78,9.82,9.82,0,0,0-7.66,4.46c-2.92,4.35-2.15,10,1.72,12.58a7.26,7.26,0,0,0,1.51.79A9.84,9.84,0,0,0,263.46,169.16Z"/><path class="cls-84" d="M260,161.31a3.19,3.19,0,0,0-.61-.31h0l-1-.51-.17.31a3.91,3.91,0,0,0-3.14,1.78,3.79,3.79,0,0,0-.13,4.19l-.18.32,1.33.7.12.06h0a3.31,3.31,0,0,0,1.39.26,3.94,3.94,0,0,0,3.05-1.79A3.6,3.6,0,0,0,260,161.31Z"/><path class="cls-85" d="M259,160.8a2.85,2.85,0,0,0-.6-.31,3.73,3.73,0,0,0-4.31,1.58,3.6,3.6,0,0,0,.69,5,3.08,3.08,0,0,0,1.85.52,4,4,0,0,0,3.06-1.79A3.61,3.61,0,0,0,259,160.8Z"/><path class="cls-86" d="M408.8,125.5a127.85,127.85,0,0,1,6.53,18.4,24.47,24.47,0,0,0,6.87-9c-3.32-16.37-8.9-30.82-22.31-30.66-3.72,0-6.93,1.9-9,6.21C400.45,109.43,405.35,117.85,408.8,125.5Z"/><path class="cls-87" d="M390.84,142.22c4.62,2.92,11.21,5.62,18.64,4.29a13.77,13.77,0,0,0,5.85-2.61,127.85,127.85,0,0,0-6.53-18.4c-3.45-7.65-8.35-16.07-17.87-15C388.24,116.2,387.66,126.27,390.84,142.22Z"/><path class="cls-88" d="M394.34,125.73c-3.79-.68-5.08-4.06-3.8-7.58a11.09,11.09,0,0,1,3.95-4.76c.52-.4,3.22-1.72,3.36-2.19.3-1-1.56-1.36-2.82-1.42-3.46,1.07-7.15,3.78-7.66,7-.27,1.5-1.71,6.21,2.83,8.59,4.07,1.93,6.8,1.41,8.26.62A16,16,0,0,1,394.34,125.73Z"/><path class="cls-89" d="M399.72,124.76c.11-.66.83-1.88-1.63-2.59s-4.51-2.06-3.68-5,7.47-3,6.86-5.93c-.53-2.13-3.3-2.39-6.24-1.47,1.26.06,3.12.37,2.82,1.42-.14.47-2.84,1.79-3.36,2.19a11.09,11.09,0,0,0-3.95,4.76c-1.28,3.52,0,6.9,3.8,7.58a16,16,0,0,0,4.12.21A2.46,2.46,0,0,0,399.72,124.76Z"/><path class="cls-90" d="M402.16,125.35c-1.16-1.52-.55-3.28.33-4.74a31.92,31.92,0,0,1,2.55-3.36c1.22-1.53,2.34-1.87.87-3.53a3.66,3.66,0,0,0-1-.92c-1.51.84-3.31,2.6-5.32,5.93-4.59,7.64.94,9.63,4.82,9.63,2.93,0,4.73-.45,5.71-1.77C407.52,127.71,403.79,127.5,402.16,125.35Z"/><path class="cls-91" d="M406.76,122.82c-3.6-.33-2.33-2.43-.28-4.65s3.93-4.76,2.6-5.59a3.93,3.93,0,0,0-4.15.22,3.66,3.66,0,0,1,1,.92c1.47,1.66.35,2-.87,3.53a31.92,31.92,0,0,0-2.55,3.36c-.88,1.46-1.49,3.22-.33,4.74,1.63,2.15,5.36,2.36,8,1.24a4.11,4.11,0,0,0,.71-1.55C411.16,123.86,410.36,123.16,406.76,122.82Z"/><path d="M309,158c-.07,0-.07.12,0,.12A.06.06,0,1,0,309,158Z"/><path d="M299.35,161.09s0,.07,0,.07A0,0,0,1,0,299.35,161.09Z"/><path d="M299.35,161.21c-.07,0-.07.12,0,.12A.06.06,0,1,0,299.35,161.21Z"/><path class="cls-92" d="M316.6,176c5.27,1.07,13.85.83,11.16-7.2a25.4,25.4,0,0,0-2.09-4.43,37.07,37.07,0,0,0-6.32-3.16c-7.28-2.87-17.58-4.95-19.53,1.19a7.58,7.58,0,0,0-.24,3.74C301.5,171.91,311.81,175.06,316.6,176Z"/><path class="cls-93" d="M316,178.26c12.47,3.32,15.8-1.18,16.39-3.77.46-2-.54-6.14-6.75-10.08a25.4,25.4,0,0,1,2.09,4.43c2.69,8-5.89,8.27-11.16,7.2-4.79-1-15.1-4.13-17-9.86C300.46,171,306.08,175.61,316,178.26Z"/><path class="cls-94" d="M339.77,140.6c-6.12.11-8.64-11.19-14-12.85s-8.19.59-8.66,3.55c.08,5.55,6,8.84,12.76,12,8.84,4.07,14.74-.76,19-6.06C348.69,137.44,345.87,140.49,339.77,140.6Z"/><path class="cls-95" d="M335.53,146a24.57,24.57,0,0,0-12-5.23c-.31.4-.83,1-1.5,1.85A23.12,23.12,0,0,1,334.75,148C335,147.29,335.28,146.62,335.53,146Z"/><path class="cls-96" d="M334.18,149.59a46.85,46.85,0,0,0-13.81-4.9l-1.49,1.77a46.22,46.22,0,0,1,14.64,5.06C333.74,150.86,334,150.21,334.18,149.59Z"/><path class="cls-97" d="M332.28,155.48a139.8,139.8,0,0,1-16.13-5.78l-1.34,1.6a143.3,143.3,0,0,0,16.9,6.1Z"/><path class="cls-98" d="M330.7,161a39.07,39.07,0,0,1-18.31-6.77l-1.29,1.56a40.52,40.52,0,0,0,19.07,7.15Z"/><path class="cls-99" d="M319.4,164.81a31,31,0,0,1-10.35-6.58l-1.27,1.57a32.61,32.61,0,0,0,10.92,6.88,31,31,0,0,0,10.05,1.76c.15-.61.32-1.29.5-2A29.51,29.51,0,0,1,319.4,164.81Z"/><path class="cls-100" d="M329.47,144.63a24.67,24.67,0,0,0-7.41-2l-1.69,2a50.66,50.66,0,0,1,8,2.24C328.76,146.16,329.12,145.39,329.47,144.63Z"/><path class="cls-101" d="M327.48,148.74a51.39,51.39,0,0,0-8.6-2.28l-2.73,3.24c2.2.94,5.33,2.21,8.91,3.47C325.92,151.72,326.73,150.23,327.48,148.74Z"/><path class="cls-102" d="M324,154.91c-3.77-1.34-7-2.68-9.18-3.61l-2.42,2.89a39.88,39.88,0,0,0,8.85,4.59A46.91,46.91,0,0,0,324,154.91Z"/><path class="cls-103" d="M331.11,141l-.76-.37c-2.81-1.33-4.8-2.51-6.65,0l-.14.2a25.83,25.83,0,0,1,6.74,2C330.58,142.17,330.85,141.57,331.11,141Z"/><path class="cls-104" d="M314.52,164.74a34.13,34.13,0,0,1-6.74-4.94c-1,1.26-1.87,2.35-2.45,3.13a2.28,2.28,0,0,0-.66,1,2.63,2.63,0,0,0,.22,2A12.52,12.52,0,0,0,314.52,164.74Z"/><path class="cls-105" d="M319.84,160.42a41,41,0,0,1-8.74-4.67c-.72.86-1.41,1.69-2.05,2.48a32.12,32.12,0,0,0,7.41,5.27A23.14,23.14,0,0,0,319.84,160.42Z"/><path class="cls-106" d="M330.3,142.8a25.83,25.83,0,0,0-6.74-2c-.31.4-.83,1-1.5,1.85a24.67,24.67,0,0,1,7.41,2Z"/><path class="cls-107" d="M328.38,146.93a50.66,50.66,0,0,0-8-2.24l-1.49,1.77a51.39,51.39,0,0,1,8.6,2.28C327.79,148.14,328.09,147.53,328.38,146.93Z"/><path class="cls-108" d="M325.06,153.17c-3.58-1.26-6.71-2.53-8.91-3.47l-1.34,1.6c2.16.93,5.41,2.27,9.18,3.61C324.36,154.34,324.71,153.76,325.06,153.17Z"/><path class="cls-109" d="M321.24,158.78a39.88,39.88,0,0,1-8.85-4.59l-1.29,1.56a41,41,0,0,0,8.74,4.67C320.32,159.9,320.78,159.35,321.24,158.78Z"/><path class="cls-110" d="M316.46,163.5a32.12,32.12,0,0,1-7.41-5.27l-1.27,1.57a34.13,34.13,0,0,0,6.74,4.94A17.61,17.61,0,0,0,316.46,163.5Z"/><path class="cls-111" d="M328.38,146.93a41.42,41.42,0,0,1,5.8,2.66c.19-.56.38-1.09.57-1.6a21.26,21.26,0,0,0-5.28-3.36C329.12,145.39,328.76,146.16,328.38,146.93Z"/><path class="cls-112" d="M325.06,153.17c2.26.8,4.71,1.6,7.22,2.31.41-1.36.82-2.69,1.24-4a39.62,39.62,0,0,0-6-2.78C326.73,150.23,325.92,151.72,325.06,153.17Z"/><path class="cls-113" d="M321.24,158.78A36.82,36.82,0,0,0,330.7,161c.32-1.17.66-2.37,1-3.56-2.7-.77-5.31-1.63-7.72-2.49A46.91,46.91,0,0,1,321.24,158.78Z"/><path class="cls-114" d="M335.53,146c.2-.46.39-.88.58-1.25.54-.85-2.36-2.51-5-3.81-.26.6-.53,1.2-.81,1.83A23.17,23.17,0,0,1,335.53,146Z"/><path class="cls-115" d="M314.77,172.53c6.45,2.13,12.38,1.71,13.25-.92.13-.65.38-1.76.73-3.17a31,31,0,0,1-10.05-1.76,30.42,30.42,0,0,1-4.18-1.94,12.52,12.52,0,0,1-9.63,1.14C306,168.22,309.8,170.89,314.77,172.53Z"/><path class="cls-116" d="M316.46,163.5a27.21,27.21,0,0,0,2.94,1.31,29.51,29.51,0,0,0,9.85,1.63c.27-1.09.59-2.28.92-3.54a39.13,39.13,0,0,1-10.33-2.48A23.14,23.14,0,0,1,316.46,163.5Z"/><path class="cls-117" d="M329.47,144.63a21.26,21.26,0,0,1,5.28,3.36c.27-.7.53-1.37.78-2a23.17,23.17,0,0,0-5.23-3.23Z"/><path class="cls-118" d="M327.48,148.74a39.62,39.62,0,0,1,6,2.78c.22-.66.44-1.31.66-1.93a41.42,41.42,0,0,0-5.8-2.66C328.09,147.53,327.79,148.14,327.48,148.74Z"/><path class="cls-119" d="M324,154.91c2.41.86,5,1.72,7.72,2.49l.57-1.92c-2.51-.71-5-1.51-7.22-2.31C324.71,153.76,324.36,154.34,324,154.91Z"/><path class="cls-120" d="M319.84,160.42a39.13,39.13,0,0,0,10.33,2.48l.53-1.94a36.82,36.82,0,0,1-9.46-2.18C320.78,159.35,320.32,159.9,319.84,160.42Z"/><path class="cls-121" d="M316.46,163.5a17.61,17.61,0,0,1-1.94,1.24,30.42,30.42,0,0,0,4.18,1.94,31,31,0,0,0,10.05,1.76c.15-.61.32-1.29.5-2a29.51,29.51,0,0,1-9.85-1.63A27.21,27.21,0,0,1,316.46,163.5Z"/><path class="cls-122" d="M357.6,104.27a17.77,17.77,0,0,0-2.15-.89,9.07,9.07,0,0,1,1.59,2.29c2.63,5.42,0,11.23-3,15.82-3.32,5.08-7.4,10.52-13.06,13.13a9.11,9.11,0,0,1-8.79-.26c2.16,3.2,4.39,6.3,7.61,6.24,6.1-.11,8.92-3.16,9.11-3.4,1.87-2.34,3.41-4.77,4.73-6.57C357.93,124.76,366.24,109.27,357.6,104.27Z"/><path class="cls-123" d="M341,134.62c5.66-2.61,9.74-8.05,13.06-13.13,3-4.59,5.66-10.4,3-15.82a9.07,9.07,0,0,0-1.59-2.29c-6.77-2.33-13.77,0-19.88,4.08,5.21-1.13,10,.64,10.81,4s-2.87,7.2-8.18,8.43-10.26-.54-11.05-4a4.47,4.47,0,0,1-.1-1.26,49.93,49.93,0,0,0-8.77,12,10.65,10.65,0,0,0-1.13,4.65c.47-3,3.34-5.21,8.66-3.55,2.52.79,4.41,3.74,6.35,6.61A9.11,9.11,0,0,0,341,134.62Z"/><path class="cls-124" d="M327.15,115.94c.79,3.42,5.74,5.19,11.05,4s9-5,8.18-8.43-5.6-5.14-10.81-4a52.2,52.2,0,0,0-8.52,7.22A4.47,4.47,0,0,0,327.15,115.94Z"/><path class="cls-125" d="M342.18,110.05a4,4,0,0,0-.15-.45l-1.75-5.33-12.76,3.53,1.71,5.26c.54,2.31,3.87,3.5,7.44,2.67S342.72,112.36,342.18,110.05Z"/><ellipse class="cls-126" cx="333.99" cy="106.3" rx="6.65" ry="4.29" transform="translate(-15.39 78.29) rotate(-13.07)"/><ellipse class="cls-127" cx="333.99" cy="106.3" rx="4.48" ry="2.89" transform="translate(-15.39 78.29) rotate(-13.07)"/><path class="cls-128" d="M402.74,166.26c-.5-2.2-.5-5.56-2.6-6.83a.19.19,0,0,0-.26.07c-1.49,1.93-.17,5.31.3,7.47.58,2.61.87,6.19,2.84,8.13a.66.66,0,0,0,1.09-.29C404.82,172.13,403.35,168.9,402.74,166.26Z"/><path class="cls-129" d="M405.59,180.41a5.7,5.7,0,0,0-.4-1,3.93,3.93,0,0,0-.62-.73.5.5,0,0,0-.83.22,3.75,3.75,0,0,0-.14.94,4.8,4.8,0,0,0,.18,1.06,5.65,5.65,0,0,0,.76,2,.8.8,0,0,0,1.48-.4A5.64,5.64,0,0,0,405.59,180.41Z"/><path class="cls-130" d="M186.16,255.5a19.7,19.7,0,0,0,.53-3.4,17.74,17.74,0,0,0-.69-6.44c-.8-2.51-3.91-6.85-6.93-5a1.11,1.11,0,0,0-.1.78,5.08,5.08,0,0,0,1.3,2.19c1.7,2.54,3.11,4.52,2.91,8.18-.1,1.95-1.15,5,0,6.82a2.55,2.55,0,0,0,.31.45C185.4,258.58,185.66,257.52,186.16,255.5Z"/><path class="cls-131" d="M188.62,257.61c1.94-3.72.73-10.1-1.52-13.48-1.3-2-5.38-5.89-7.87-3.65a.74.74,0,0,0-.16.2c3-1.87,6.13,2.47,6.93,5a17.74,17.74,0,0,1,.69,6.44,19.7,19.7,0,0,1-.53,3.4c-.5,2-.76,3.08-2.71,3.6C185,261,187.59,259.61,188.62,257.61Z"/><circle class="cls-132" cx="399.26" cy="287.04" r="1.87"/><circle class="cls-133" cx="350.08" cy="413.66" r="1.45"/><line class="cls-134" x1="299.03" y1="323.86" x2="457.52" y2="220.93"/><line class="cls-134" x1="336.77" y1="387.85" x2="426.78" y2="332.93"/><line class="cls-134" x1="207.44" y1="213.16" x2="312.12" y2="107.38"/><line class="cls-134" x1="198.03" y1="341.01" x2="297.28" y2="263.74"/></g></svg>