<?xml version="1.0" encoding="UTF-8"?>
<svg width="1027px" height="1129px" viewBox="0 0 1027 1129" version="1.1" xmlns="http://www.w3.org/2000/svg" xmlns:xlink="http://www.w3.org/1999/xlink">
    <title>Group 4</title>
    <g id="Websites--Page-Parking" stroke="none" stroke-width="1" fill="none" fill-rule="evenodd" opacity="0.12">
        <g id="PageParking---Scaleway--Copy" transform="translate(-614.000000, 270.000000)" fill="#FFFFFF" fill-rule="nonzero">
            <g id="Group-4" transform="translate(1127.500000, 294.500000) rotate(-15.000000) translate(-1127.500000, -294.500000) translate(724.000000, -181.000000)">
                <path d="M370.709749,729.6 L524.202786,729.6 C557.896379,725.802198 584.102507,696.938901 585.6,662.758681 L585.6,437.928791 C585.6,408.305934 561.640111,384 532.438997,384 C503.237883,384 479.277994,408.305934 479.277994,437.928791 L479.277994,580.726154 C479.277994,602.753407 461.308078,620.982857 439.594429,620.982857 C439.594429,620.982857 439.594429,620.982857 439.594429,620.982857 L369.961003,620.982857 C340.759889,620.982857 316.8,645.288791 316.8,674.911648 C316.8,674.911648 316.8,674.911648 316.8,675.671209 C316.8,706.053626 341.508635,729.6 370.709749,729.6 Z" id="Path"></path>
                <path d="M435.690251,220.8 L282.197214,220.8 C248.503621,224.597802 222.297493,253.461099 220.8,287.641319 L220.8,512.471209 C220.8,542.094066 244.759889,566.4 273.961003,566.4 C303.162117,566.4 327.122006,542.094066 327.122006,512.471209 L327.122006,369.673846 C327.122006,346.887033 345.091922,329.417143 366.805571,329.417143 L436.438997,329.417143 C465.640111,329.417143 489.6,305.111209 489.6,275.488352 C489.6,275.488352 489.6,274.728791 489.6,274.728791 C488.851253,244.346374 464.891365,220.8 435.690251,220.8 Z" id="Path"></path>
                <path d="M465.937002,108.399036 C593.706262,108.399036 696.992789,211.454458 696.992789,338.937831 L696.992789,782.457831 L696.992789,782.457831 C691.637192,812.992771 667.154459,836.657349 635.785958,841.23759 L340.462998,841.23759 C212.693738,841.23759 109.407211,738.182169 109.407211,610.698795 L109.407211,180.156145 C109.407211,140.460723 141.540797,109.16241 180.560152,109.16241 C180.560152,109.16241 180.560152,109.16241 180.560152,109.16241 L465.937002,109.16241 M465.937002,0 L180.560152,0 C81.0990512,0 0,80.9175904 0,180.156145 L0,610.698795 C0,798.488675 152.251992,950.4 340.462998,950.4 L340.462998,950.4 L641.906641,950.4 C728.36129,943.529639 797.218975,876.352771 806.4,790.85494 L806.4,790.85494 L806.4,338.937831 C806.4,151.911325 654.148008,0 465.937002,0 C465.937002,0 465.937002,0 465.937002,0 Z" id="Shape"></path>
            </g>
        </g>
    </g>
</svg>