<svg width="247" height="24" viewBox="0 0 247 24" fill="none" xmlns="http://www.w3.org/2000/svg">
  <path d="M11.53 10.685c0-.754.635-1.388 1.39-1.388.754 0 1.357.604 1.388 1.419v5.463c-.03.876-.695 1.57-1.57 1.69H8.935c-.785 0-1.419-.603-1.419-1.388 0-.785.604-1.419 1.389-1.419h1.72a.89.89 0 0 0 .906-.905v-3.472ZM8.03 12.376V8.905a.89.89 0 0 1 .905-.906h1.72c.785 0 1.389-.634 1.389-1.419 0-.754-.634-1.388-1.419-1.388H6.822c-.876.12-1.54.815-1.57 1.69v5.464c0 .754.634 1.388 1.389 1.388.754.03 1.388-.604 1.388-1.358Z"/>
  <path fill-rule="evenodd" clip-rule="evenodd" d="M4.347 0h6.912c4.528 0 8.21 3.683 8.21 8.18v10.957c-.211 2.083-1.871 3.683-3.954 3.864H8.21C3.683 23 0 19.318 0 14.79V4.377C0 1.962 1.932 0 4.347 0Zm12.345 18.835V8.301c0-3.049-2.445-5.494-5.433-5.524H4.498c-.936.03-1.69.785-1.69 1.72V14.76a5.462 5.462 0 0 0 5.463 5.464h6.972a1.698 1.698 0 0 0 1.45-1.389Z"/>
  <path d="M31.302 5.645a3.375 3.375 0 0 0-1.992.543c-.423.302-.695.815-.725 1.388-.03.514.211 1.057.634 1.389.483.392 1.389.755 2.626 1.056 1.69.483 3.019 1.087 3.985 1.902 1.026.906 1.539 2.113 1.539 3.683 0 .905-.272 1.81-.785 2.565a4.773 4.773 0 0 1-2.113 1.751 6.469 6.469 0 0 1-3.018.634 7.642 7.642 0 0 1-3.653-.936 8.74 8.74 0 0 1-2.928-2.535.589.589 0 0 1 .09-.846l1.42-1.237c.12-.09.271-.151.422-.151h.09c.182.03.363.15.454.302.483.755 1.116 1.418 1.901 1.871.725.423 1.57.664 2.445.664.936 0 1.63-.18 2.083-.573.453-.362.664-.906.634-1.48a1.794 1.794 0 0 0-.664-1.599c-.544-.423-1.45-.815-2.657-1.177-3.622-.876-5.433-2.596-5.433-5.132 0-1.57.513-2.807 1.57-3.652 1.026-.845 2.384-1.238 4.105-1.238a7.379 7.379 0 0 1 6.037 2.868.625.625 0 0 1-.09.875L35.92 7.727a.72.72 0 0 1-.422.151h-.091c-.181-.03-.362-.12-.453-.271-.392-.604-.966-1.117-1.6-1.48a4.373 4.373 0 0 0-2.052-.482Z"/>
  <path fill-rule="evenodd" clip-rule="evenodd" d="M138.338 6.339c-1.178-.604-2.566-.876-4.196-.876h-4.377v14.76h4.377c1.63 0 3.048-.3 4.196-.874 1.177-.574 2.052-1.42 2.686-2.536.634-1.117.936-2.415.936-3.954 0-1.54-.302-2.868-.936-3.985-.634-1.086-1.539-1.931-2.686-2.535Zm.482 11.048c-1.086 1.086-2.656 1.63-4.708 1.63h-2.898V6.67h2.898c2.052 0 3.622.543 4.708 1.63 1.087 1.087 1.63 2.596 1.63 4.558 0 1.932-.543 3.44-1.63 4.528ZM154.064 11.229a4.415 4.415 0 0 0-1.721-1.932c-.784-.513-1.75-.755-2.837-.755-1.057 0-1.992.242-2.837.725-.846.483-1.479 1.177-1.962 2.083-.483.905-.695 1.931-.695 3.109 0 1.177.242 2.233.695 3.139.483.905 1.116 1.6 1.962 2.083.845.482 1.78.724 2.807.724 1.086 0 2.052-.272 2.837-.785.785-.513 1.389-1.177 1.751-1.962v2.566h1.479V8.694h-1.479v2.535Zm-.574 5.675a4.442 4.442 0 0 1-1.539 1.63c-.664.392-1.389.573-2.173.573-.815 0-1.54-.181-2.204-.573-.634-.363-1.147-.906-1.539-1.63a5.43 5.43 0 0 1-.574-2.476c0-.966.181-1.78.574-2.475.362-.694.875-1.237 1.539-1.6.634-.362 1.389-.543 2.204-.543.784 0 1.509.181 2.173.574a4.004 4.004 0 0 1 1.539 1.63c.393.694.574 1.509.574 2.445 0 .935-.181 1.75-.574 2.445Z"/>
  <path d="M159.346 5.796h1.51v2.897h3.169v1.238h-3.2v7.154c0 .694.121 1.177.393 1.448.271.272.754.393 1.418.393h1.359v1.268h-1.57c-1.056 0-1.811-.242-2.324-.725-.513-.483-.755-1.268-.755-2.384V9.93h-1.6V8.693h1.6V5.796Z"/>
  <path fill-rule="evenodd" clip-rule="evenodd" d="M175.857 11.229a4.412 4.412 0 0 0-1.72-1.932c-.785-.513-1.751-.755-2.838-.755-1.056 0-1.992.242-2.837.725-.845.483-1.479 1.177-1.962 2.083-.483.905-.694 1.931-.694 3.109 0 1.177.241 2.233.694 3.139.483.905 1.117 1.6 1.962 2.083.845.482 1.781.724 2.807.724 1.087 0 2.053-.272 2.838-.785.784-.513 1.388-1.177 1.75-1.962v2.566h1.479V8.694h-1.479v2.535Zm-.573 5.675a4.453 4.453 0 0 1-1.54 1.63c-.664.392-1.388.573-2.173.573-.815 0-1.539-.181-2.203-.573-.634-.363-1.147-.906-1.54-1.63a5.443 5.443 0 0 1-.573-2.476c0-.966.181-1.78.573-2.475.362-.694.876-1.237 1.54-1.6.634-.362 1.388-.543 2.203-.543.785 0 1.509.181 2.173.574a4 4 0 0 1 1.54 1.63c.392.694.573 1.509.573 2.445 0 .935-.181 1.75-.573 2.445Z"/>
  <path d="M185.637 9.78c-.754 0-1.449.181-2.082.543-.634.332-1.117.876-1.479 1.54-.363.694-.544 1.54-.544 2.565 0 .996.181 1.872.544 2.566.362.694.845 1.207 1.479 1.57.603.362 1.298.543 2.082.543.966 0 1.781-.211 2.445-.694.634-.453 1.057-1.117 1.268-1.962h1.57c-.272 1.207-.876 2.143-1.811 2.867-.936.725-2.083 1.087-3.502 1.087-1.087 0-2.052-.242-2.898-.724-.845-.514-1.509-1.178-1.992-2.083-.483-.906-.724-1.932-.724-3.14 0-1.207.241-2.233.724-3.139.483-.905 1.147-1.6 1.992-2.082.846-.483 1.811-.725 2.898-.725 1.449 0 2.596.362 3.532 1.057.905.694 1.509 1.66 1.781 2.867h-1.57c-.181-.845-.604-1.479-1.268-1.962-.664-.453-1.479-.694-2.445-.694Z"/>
  <path fill-rule="evenodd" clip-rule="evenodd" d="M201.545 9.237c-.815-.483-1.781-.725-2.898-.725-1.117 0-2.083.242-2.928.725a4.92 4.92 0 0 0-1.992 2.082c-.483.906-.725 1.962-.725 3.14 0 1.207.242 2.233.725 3.139.483.905 1.147 1.57 2.022 2.083.845.482 1.842.724 2.928.724 1.389 0 2.566-.362 3.471-1.056.906-.695 1.54-1.63 1.812-2.747h-1.6c-.212.785-.634 1.418-1.298 1.871-.664.453-1.449.694-2.415.694-.724 0-1.419-.15-2.022-.483a3.789 3.789 0 0 1-1.51-1.418c-.392-.634-.603-1.358-.633-2.234h9.568c.03-.272.03-.664.03-1.177 0-.996-.211-1.872-.664-2.687-.422-.815-1.056-1.448-1.871-1.931Zm1.056 4.557h-8.119c.09-1.267.513-2.233 1.297-2.958a4.11 4.11 0 0 1 2.808-1.056c.724 0 1.418.15 2.022.453a3.384 3.384 0 0 1 1.479 1.358c.362.604.543 1.328.513 2.204Z"/>
  <path d="M209.876 9.055c.694-.392 1.479-.573 2.354-.573 1.359 0 2.506.423 3.381 1.268s1.298 2.082 1.298 3.713v6.76h-1.449v-6.58c0-1.237-.302-2.203-.936-2.867-.634-.664-1.479-.996-2.565-.996-1.117 0-1.993.362-2.657 1.056-.664.695-.996 1.751-.996 3.11v6.308h-1.479V8.724h1.479v1.961c.362-.724.876-1.267 1.57-1.63ZM222.071 5.796h-1.48v2.897h-1.599v1.238h1.599v7.154c0 1.116.242 1.901.755 2.384.513.483 1.268.725 2.324.725h1.57v-1.268h-1.358c-.664 0-1.147-.12-1.419-.392s-.392-.755-.392-1.45V9.932h3.169V8.693h-3.169V5.796Z"/>
  <path fill-rule="evenodd" clip-rule="evenodd" d="M232.665 8.512c1.117 0 2.083.242 2.898.725.845.483 1.479 1.116 1.902 1.931.453.815.664 1.69.664 2.687 0 .513 0 .905-.03 1.177h-9.569c.03.876.242 1.6.634 2.234a3.78 3.78 0 0 0 1.509 1.419c.604.332 1.298.482 2.023.482.966 0 1.75-.241 2.414-.694.664-.453 1.087-1.086 1.298-1.871h1.57c-.272 1.116-.906 2.052-1.811 2.747-.906.694-2.083 1.056-3.471 1.056-1.087 0-2.083-.242-2.928-.724-.876-.514-1.54-1.178-2.023-2.083-.483-.906-.724-1.932-.724-3.14 0-1.177.241-2.233.724-3.139a4.916 4.916 0 0 1 1.993-2.082c.845-.483 1.811-.725 2.927-.725Zm-4.135 5.282h8.12c.03-.875-.151-1.6-.513-2.203a3.39 3.39 0 0 0-1.479-1.358 4.521 4.521 0 0 0-2.023-.453 4.109 4.109 0 0 0-2.807 1.056c-.785.725-1.207 1.69-1.298 2.958Z"/>
  <path d="M243.804 9.055a3.58 3.58 0 0 0-1.479 1.66V8.664h-1.479v11.53h1.479v-6.429c0-1.358.332-2.324.966-2.897.633-.574 1.509-.876 2.565-.876h.393v-1.54c-.936.031-1.751.212-2.445.604ZM49.624 17.356l-1.238-.845a.649.649 0 0 0-.845.12 3.586 3.586 0 0 1-1.086.937 2.95 2.95 0 0 1-1.51.301 2.487 2.487 0 0 1-1.6-.452 2.934 2.934 0 0 1-1.116-1.298 4.855 4.855 0 0 1 0-3.894 3.027 3.027 0 0 1 1.117-1.268 3.06 3.06 0 0 1 1.6-.453c.965 0 1.87.514 2.384 1.359.09.15.241.241.422.271h.091c.151 0 .272-.06.392-.12l1.148-.906c.271-.211.301-.604.09-.875a7.243 7.243 0 0 0-1.962-1.751 4.875 4.875 0 0 0-2.596-.634c-1.087 0-2.143.272-3.079.845a5.612 5.612 0 0 0-2.143 2.294 6.731 6.731 0 0 0-.755 3.26 6.929 6.929 0 0 0 .755 3.29c.483.936 1.208 1.751 2.143 2.294.936.574 2.023.846 3.11.846.935 0 1.87-.212 2.716-.634a6.19 6.19 0 0 0 2.083-1.66l.03-.03c.211-.393.15-.816-.151-.997Z"/>
  <path fill-rule="evenodd" clip-rule="evenodd" d="M60.4 8.15h1.57c.332 0 .603.302.603.604V19.53a.638.638 0 0 1-.633.633h-1.57c-.362-.03-.634-.301-.634-.633v-.03c-.189.141-.36.246-.54.357l-.085.052-.07.043c-.754.423-1.6.604-2.444.604a5.749 5.749 0 0 1-5.222-3.14 7.288 7.288 0 0 1 0-6.52 5.764 5.764 0 0 1 5.192-3.108c.875 0 1.72.18 2.475.573l.159.098c.196.12.4.243.565.385v-.06c0-.362.302-.634.634-.634Zm-2.173 9.297a2.933 2.933 0 0 0 1.117-1.298 4.855 4.855 0 0 0 0-3.894 3.026 3.026 0 0 0-1.117-1.268 2.652 2.652 0 0 0-1.63-.483c-.574 0-1.117.151-1.6.453-.483.302-.845.755-1.117 1.268a4.51 4.51 0 0 0-.422 1.962c0 .664.12 1.358.422 1.962.242.543.634.996 1.117 1.298a2.54 2.54 0 0 0 1.6.453c.573 0 1.117-.151 1.63-.453Z"/>
  <path d="M66.83 2.898h-1.6a.588.588 0 0 0-.574.634V19.59c0 .332.272.634.634.634h1.57a.638.638 0 0 0 .633-.634V3.501c-.06-.332-.331-.603-.664-.603ZM97.709 8.15c.09 0 .18.03.271.06.332.121.483.453.302.815l-3.531 10.776a.643.643 0 0 1-.604.453h-1.6c-.272 0-.543-.181-.604-.453l-2.052-6.43-2.204 6.46a.616.616 0 0 1-.603.423h-1.57c-.272 0-.543-.181-.604-.453L81.348 9.025a.635.635 0 0 1 .302-.754c.09-.06.212-.09.332-.09h1.66c.272 0 .544.18.604.452l2.173 6.7 2.204-6.73a.643.643 0 0 1 .604-.453h1.54c.27 0 .542.181.603.453l2.113 6.64 2.143-6.64a.643.643 0 0 1 .603-.453h1.48Z"/>
  <path fill-rule="evenodd" clip-rule="evenodd" d="M110.054 8.18h-1.569c-.363.03-.634.302-.634.664v.06a3.642 3.642 0 0 0-.725-.452 5.321 5.321 0 0 0-2.445-.604 5.645 5.645 0 0 0-5.191 3.11 7.289 7.289 0 0 0 0 6.52 5.75 5.75 0 0 0 5.222 3.138c.845 0 1.72-.18 2.475-.603.241-.121.483-.272.694-.453v.03c0 .332.272.604.634.634h1.569a.638.638 0 0 0 .634-.634V8.814c-.03-.362-.302-.634-.664-.634Zm-2.626 7.969a2.93 2.93 0 0 1-1.117 1.298 3.059 3.059 0 0 1-1.599.453 2.539 2.539 0 0 1-1.6-.453 2.93 2.93 0 0 1-1.117-1.298c-.302-.604-.423-1.298-.423-1.962-.03-.664.121-1.328.423-1.962.272-.513.634-.966 1.117-1.268a2.983 2.983 0 0 1 1.6-.453c.573-.03 1.147.151 1.599.453.483.302.876.755 1.117 1.268a4.921 4.921 0 0 1 0 3.924ZM71.96 8.663c.937-.573 1.993-.845 3.08-.845 2.113-.03 4.075 1.147 5.101 3.049.513.935.755 1.992.755 3.048 0 .242 0 .483-.03.725a.627.627 0 0 1-.635.573h-8.15c.121.634.423 1.268.846 1.781.543.634 1.358.966 2.203.936a4.45 4.45 0 0 0 1.962-.453 3.697 3.697 0 0 0 1.027-.905.7.7 0 0 1 .935-.121l1.057.785c0 .03.03.03.03.03a.716.716 0 0 1 .12.996c-.512.664-1.176 1.207-1.9 1.63a6.81 6.81 0 0 1-3.26.755 6.242 6.242 0 0 1-3.11-.846 5.805 5.805 0 0 1-2.143-2.294 6.93 6.93 0 0 1-.755-3.29c0-1.147.242-2.264.755-3.26a5.542 5.542 0 0 1 2.113-2.294Zm.283 3.894h5.634a2.878 2.878 0 0 0-.785-1.419c-.453-.453-1.147-.664-1.992-.664-.724-.03-1.449.272-1.992.785a3.3 3.3 0 0 0-.865 1.298Z"/>
  <path d="M122.883 8.18h-1.479a.616.616 0 0 0-.604.423l-3.049 7.848-2.897-7.878c-.121-.242-.332-.393-.604-.393h-1.63a.626.626 0 0 0-.513.272.616.616 0 0 0-.061.603l4.226 11.2c-.06.422-.302.784-.634 1.056-.392.271-1.147.301-1.569.301a.714.714 0 0 0-.664.665v1.056a.67.67 0 0 0 .664.664l.222.001c.662.006 1.588.015 2.344-.363 1.536-.809 1.893-1.786 2.296-2.889v-.002c.048-.131.097-.264.149-.4l4.346-11.349a.766.766 0 0 0-.06-.573.629.629 0 0 0-.483-.242Z"/>
</svg>
