<?xml version="1.0" standalone="no"?>
<!DOCTYPE svg PUBLIC "-//W3C//DTD SVG 20010904//EN"
 "http://www.w3.org/TR/2001/REC-SVG-20010904/DTD/svg10.dtd">
<svg version="1.0" xmlns="http://www.w3.org/2000/svg"
 width="10656.000000pt" height="13434.000000pt" viewBox="0 0 10656.000000 13434.000000"
 preserveAspectRatio="xMidYMid meet">
<metadata>
Created by potrace 1.16, written by Peter Selinger 2001-2019
</metadata>
<g transform="translate(0.000000,13434.000000) scale(0.100000,-0.100000)"
fill="#a4543d" stroke="none">
<path d="M73170 134306 c-3 -3 -231 -10 -505 -16 -670 -15 -1029 -28 -1710
-60 -304 -14 -883 -45 -1020 -54 -38 -3 -117 -8 -175 -11 -58 -3 -168 -10
-245 -16 -77 -5 -210 -14 -295 -20 -332 -22 -402 -28 -790 -59 -63 -5 -167
-14 -230 -20 -63 -5 -169 -14 -235 -19 -66 -6 -142 -12 -170 -15 -27 -3 -102
-10 -165 -16 -481 -44 -1393 -140 -1805 -190 -495 -60 -600 -73 -810 -100
-465 -61 -619 -82 -1030 -141 -3066 -437 -6155 -1059 -8857 -1783 -1174 -314
-2061 -574 -3293 -963 -782 -247 -1991 -659 -2875 -981 -3966 -1443 -7981
-3287 -11863 -5449 -518 -289 -1129 -636 -1547 -881 -80 -47 -221 -130 -315
-185 -734 -430 -1811 -1090 -2655 -1627 -8162 -5195 -15784 -11853 -21776
-19020 -3651 -4367 -6533 -8700 -8431 -12675 -640 -1340 -1216 -2786 -1578
-3965 -65 -209 -188 -624 -206 -690 -55 -203 -84 -312 -133 -505 -52 -206 -73
-295 -125 -525 -5 -25 -14 -65 -20 -90 -6 -25 -15 -72 -21 -105 -7 -33 -16
-78 -20 -100 -14 -64 -44 -221 -60 -315 -6 -36 -14 -74 -16 -85 -3 -11 -9 -49
-15 -85 -5 -36 -13 -92 -19 -125 -28 -177 -31 -196 -60 -430 -49 -386 -70
-655 -76 -970 -3 -137 -10 -254 -15 -259 -12 -13 -12 -369 0 -382 5 -5 12
-119 15 -254 6 -314 27 -552 76 -875 22 -147 28 -182 40 -240 7 -33 16 -80 20
-105 14 -71 20 -103 30 -140 5 -19 21 -82 35 -140 14 -58 39 -152 56 -210 17
-58 34 -118 39 -135 48 -185 211 -585 345 -850 258 -508 564 -926 966 -1320
455 -445 955 -777 1646 -1094 1240 -567 2961 -899 5098 -982 312 -12 1392 -15
1695 -5 679 23 1185 50 1870 102 615 46 1357 117 1815 175 44 5 113 12 153 16
l72 6 0 -62 c0 -37 14 -116 35 -199 192 -764 296 -1425 335 -2142 13 -241 13
-896 0 -1131 -79 -1388 -439 -2396 -1141 -3194 -332 -377 -583 -599 -1389
-1225 -934 -727 -1333 -1065 -1814 -1540 -793 -783 -1553 -1709 -2416 -2945
-678 -969 -1011 -1635 -1159 -2312 -52 -239 -65 -363 -65 -628 0 -270 13 -388
69 -610 140 -560 487 -1022 1045 -1394 283 -189 521 -303 1037 -497 815 -305
1083 -446 1362 -718 237 -231 355 -444 423 -761 30 -141 30 -400 0 -571 -73
-419 -233 -803 -692 -1664 -348 -653 -513 -1028 -614 -1395 -197 -719 -122
-1302 239 -1845 99 -149 163 -230 291 -367 213 -230 572 -513 884 -698 171
-102 252 -158 327 -228 125 -116 179 -236 153 -334 -44 -164 -178 -291 -535
-509 -182 -111 -235 -148 -356 -250 -274 -232 -480 -526 -560 -804 -111 -381
-25 -737 265 -1095 64 -79 253 -270 351 -354 135 -116 308 -246 630 -471 467
-327 626 -453 824 -651 226 -227 382 -440 508 -696 112 -226 175 -424 214
-673 18 -112 18 -477 1 -590 -58 -368 -127 -583 -432 -1345 -175 -437 -261
-666 -318 -850 -80 -256 -140 -511 -162 -690 -6 -49 -13 -103 -16 -120 -13
-77 -16 -450 -5 -573 55 -620 303 -1206 747 -1762 135 -169 503 -538 683 -685
599 -488 1232 -853 2118 -1219 1102 -455 2261 -758 3303 -865 435 -45 741 -58
1155 -50 768 16 1524 101 2508 285 476 88 753 147 1778 374 1490 331 1817 397
2764 554 233 39 443 73 1095 176 716 113 1780 255 2435 325 1295 139 2300 197
3390 197 797 0 1342 -27 1990 -98 137 -15 636 -84 745 -103 386 -68 558 -104
875 -182 1172 -291 2188 -748 2991 -1344 671 -499 1187 -1208 1609 -2210 67
-160 245 -616 455 -1165 697 -1825 1060 -2671 1548 -3615 980 -1897 2218
-3772 3776 -5720 514 -642 774 -948 1556 -1830 933 -1051 1357 -1562 1782
-2149 614 -844 987 -1550 1277 -2414 398 -1184 585 -2604 510 -3867 -85 -1440
-500 -2684 -1209 -3630 -150 -199 -249 -314 -435 -504 -260 -265 -510 -477
-891 -757 -165 -121 -299 -214 -934 -652 -664 -458 -1173 -868 -1860 -1497
-218 -200 -855 -833 -1061 -1055 -720 -775 -1383 -1604 -2019 -2520 -263 -380
-426 -631 -449 -693 -41 -112 -22 -232 52 -334 125 -169 383 -233 563 -140 73
38 129 105 306 370 647 968 1300 1801 2087 2662 213 233 947 966 1167 1166
760 690 1275 1096 2104 1659 562 381 861 599 1124 818 176 147 518 486 659
653 792 940 1302 2077 1526 3404 41 243 77 556 103 885 17 222 17 1133 0 1375
-64 896 -217 1821 -413 2498 -290 1003 -796 2016 -1498 2997 -348 488 -698
917 -1821 2234 -989 1161 -1464 1730 -1871 2241 -1666 2093 -3102 4424 -4070
6607 -280 631 -433 1019 -749 1898 -379 1057 -521 1409 -770 1915 -319 647
-610 1064 -1045 1500 -400 402 -868 750 -1430 1065 -204 115 -639 327 -877
428 -1899 809 -4117 1082 -7128 876 -651 -44 -1651 -137 -2305 -213 -93 -11
-213 -25 -265 -31 -306 -35 -1230 -157 -1505 -200 -76 -12 -214 -33 -430 -65
-1153 -174 -2489 -426 -3925 -740 -1130 -247 -1491 -320 -1965 -399 -960 -160
-1644 -217 -2350 -195 -586 18 -956 66 -1675 220 -1447 310 -2720 842 -3615
1511 -450 336 -815 722 -1033 1091 -241 408 -352 793 -352 1222 0 445 112 864
435 1630 298 708 400 997 469 1340 65 323 79 668 39 980 -79 622 -362 1217
-816 1715 -203 224 -445 424 -952 793 -504 366 -671 501 -871 702 -102 103
-128 135 -163 205 -38 76 -41 89 -41 161 0 120 44 208 175 348 97 103 173 160
530 393 226 148 316 219 425 336 191 203 299 423 337 680 37 260 -29 529 -188
767 -135 201 -238 293 -687 612 -422 300 -508 368 -677 539 -135 136 -211 236
-283 374 -94 180 -132 344 -132 567 0 443 179 936 646 1773 311 558 473 904
594 1270 106 317 158 563 181 850 39 487 -91 1006 -350 1396 -190 285 -467
540 -818 752 -269 162 -504 272 -1053 492 -559 224 -763 322 -999 477 -316
209 -519 442 -633 728 -217 540 -100 1271 327 2055 214 392 451 740 993 1455
882 1163 1347 1712 2001 2365 502 501 817 770 1636 1400 930 716 1234 984
1604 1414 400 466 713 996 928 1571 223 593 357 1299 401 2105 11 212 7 1055
-7 1265 -53 827 -163 1511 -361 2260 -10 39 -23 86 -29 105 -17 55 -15 58 47
65 31 3 86 10 122 15 36 5 103 14 150 20 95 12 109 14 510 71 1461 206 3287
541 5155 944 2575 555 5995 1398 7880 1941 127 36 242 68 256 71 22 4 53 -16
184 -119 219 -171 247 -192 725 -559 3188 -2447 6716 -4888 9905 -6854 3707
-2286 7127 -3977 10195 -5041 1530 -530 3127 -887 4455 -994 450 -36 1093 -43
1465 -16 l205 15 180 -88 c99 -49 203 -99 230 -111 28 -12 79 -36 115 -52 36
-16 137 -60 225 -98 557 -237 621 -262 1820 -712 834 -312 1279 -486 1623
-632 1729 -736 2836 -1513 3717 -2611 1047 -1304 1708 -3027 1969 -5130 49
-393 88 -778 185 -1850 117 -1275 182 -1835 297 -2519 45 -273 52 -313 99
-551 320 -1618 866 -3179 1604 -4584 857 -1632 1821 -2785 3253 -3889 1070
-825 2248 -1499 3615 -2068 586 -244 1318 -503 1908 -674 116 -34 241 -71 280
-83 79 -25 74 -18 115 -177 12 -47 26 -96 30 -110 4 -14 13 -43 19 -65 30
-108 254 -896 266 -935 8 -25 55 -182 105 -350 50 -168 107 -357 126 -420 92
-297 120 -387 171 -550 181 -578 517 -1598 668 -2035 40 -115 96 -275 123
-355 28 -80 98 -278 155 -440 1420 -3994 3177 -7918 5232 -11680 1519 -2781
3201 -5477 5074 -8130 1847 -2618 3894 -5203 6065 -7660 992 -1122 1939 -2143
3070 -3308 354 -364 408 -416 461 -441 94 -44 144 -53 223 -40 96 16 167 54
243 129 144 143 181 329 96 485 -16 28 -94 118 -180 206 -763 785 -1100 1137
-1597 1669 -1399 1498 -2679 2961 -3981 4550 -137 167 -261 321 -553 685
-3346 4176 -6278 8632 -8729 13265 -422 799 -1045 2034 -1414 2805 -1054 2203
-1956 4320 -2775 6515 -255 684 -530 1451 -733 2050 -48 140 -105 307 -126
370 -57 165 -325 984 -409 1250 -103 324 -259 824 -331 1065 -17 55 -48 156
-69 225 -21 69 -51 166 -65 215 -26 88 -55 184 -116 388 -32 105 -41 137 -58
197 -5 19 -19 67 -31 105 -12 39 -26 85 -31 103 -5 17 -14 49 -20 70 -22 76
-23 92 -3 92 10 0 31 -4 48 -10 17 -5 69 -18 116 -29 47 -11 114 -27 150 -35
36 -9 90 -21 120 -27 30 -6 71 -15 90 -19 292 -66 977 -192 1390 -254 1596
-242 3244 -353 4734 -317 546 12 865 26 1206 51 1092 81 1962 198 2947 395
3715 744 7235 2362 10033 4609 1152 926 2193 1976 3115 3141 511 645 967 1306
1455 2105 372 609 850 1531 1185 2290 623 1411 1121 3015 1395 4500 12 63 25
135 30 160 24 120 97 580 131 815 12 88 25 187 60 480 35 294 73 702 100 1075
59 838 59 2022 0 2860 -33 459 -72 863 -121 1255 -6 50 -15 124 -20 165 -5 41
-14 107 -19 145 -6 39 -15 104 -21 145 -5 41 -14 104 -20 140 -6 36 -15 92
-20 125 -5 33 -14 87 -19 120 -6 33 -15 87 -20 120 -95 588 -289 1473 -467
2133 -734 2725 -1722 4765 -3083 6372 -393 464 -883 950 -1357 1346 -376 314
-855 660 -1259 911 -461 285 -716 423 -1375 742 -23 11 -73 64 -143 151 -359
446 -584 698 -936 1051 -305 304 -466 453 -741 684 -601 505 -1302 1001 -2144
1517 -442 272 -758 519 -1086 848 -361 363 -628 728 -852 1165 -457 894 -598
1841 -477 3200 32 360 77 707 225 1745 252 1765 335 2534 385 3560 13 265 16
1112 5 1385 -56 1412 -248 2862 -602 4550 -763 3636 -2127 6595 -4119 8935
-569 668 -1256 1363 -1938 1962 -1893 1660 -4216 3082 -6898 4223 -290 123
-788 325 -989 400 -69 25 -152 57 -185 70 -83 32 -232 87 -340 125 -49 17
-112 40 -140 50 -77 29 -194 70 -257 90 -114 38 -113 33 -31 126 28 32 60 68
70 80 10 11 97 109 193 218 96 109 191 217 210 240 19 23 83 96 141 162 150
169 726 841 1045 1219 2828 3348 4910 6256 6238 8715 289 534 669 1318 903
1863 566 1319 905 2500 1013 3527 6 58 13 125 15 150 3 25 7 88 10 140 3 52 8
116 10 142 6 52 6 723 0 803 -12 172 -18 237 -36 380 -81 653 -252 1227 -535
1795 -393 786 -916 1401 -1685 1979 -790 595 -1787 1083 -3013 1477 -770 247
-1550 439 -2516 619 -216 40 -822 134 -1060 165 -47 6 -116 15 -155 20 -91 12
-217 27 -332 40 -51 5 -132 14 -180 20 -49 5 -140 14 -203 20 -63 6 -135 13
-160 16 -98 12 -679 57 -950 74 -430 28 -825 46 -1295 61 -375 11 -1977 24
-1985 15z m1370 -846 c2735 -70 4795 -327 6613 -825 1702 -467 2906 -1066
3802 -1891 595 -548 1044 -1252 1282 -2009 232 -742 274 -1592 127 -2587 -173
-1172 -633 -2487 -1440 -4108 -1221 -2456 -2872 -4864 -5588 -8150 -870 -1051
-1589 -1895 -2566 -3009 -228 -260 -453 -516 -500 -570 -215 -245 -1296 -1459
-1475 -1656 -1941 -2139 -3977 -4096 -6415 -6165 -830 -705 -1961 -1614 -2970
-2386 -1579 -1210 -4276 -3146 -7130 -5121 -2736 -1892 -7014 -4772 -8956
-6029 -3999 -2588 -7396 -4503 -10669 -6016 -1684 -778 -3579 -1537 -5595
-2238 -314 -110 -1498 -504 -1755 -585 -470 -148 -888 -278 -1075 -335 -58
-17 -161 -49 -230 -70 -1630 -499 -4546 -1276 -6890 -1836 -1845 -441 -3701
-834 -5330 -1128 -665 -120 -1500 -262 -2005 -341 -126 -19 -286 -44 -355 -55
-69 -11 -219 -33 -335 -50 -115 -17 -237 -34 -270 -40 -33 -5 -195 -27 -360
-49 -2781 -372 -5039 -460 -7155 -281 -2438 207 -4111 801 -5151 1830 -523
518 -842 1064 -1057 1815 -42 145 -87 319 -101 389 -5 23 -20 97 -34 166 -84
417 -107 669 -114 1245 -11 883 56 1526 263 2555 267 1324 750 2812 1418 4371
1222 2855 2947 5847 5229 9069 3826 5402 8973 10942 14661 15780 429 365 986
830 1371 1146 5842 4787 12169 8829 18615 11891 2897 1377 5834 2562 8775
3541 344 115 865 284 1020 332 50 15 194 60 320 100 2998 939 6314 1722 9680
2284 725 121 1673 266 2262 345 81 11 247 34 368 51 229 31 1230 158 1465 185
1384 160 2488 260 3825 345 627 39 1581 79 2285 93 350 8 1810 5 2140 -3z
m2345 -23896 c55 -19 133 -46 173 -60 68 -23 562 -204 722 -264 41 -16 113
-43 160 -60 189 -70 823 -326 1100 -443 1385 -587 2661 -1246 3827 -1975 1918
-1200 3583 -2630 4862 -4177 69 -82 143 -172 166 -200 23 -27 102 -129 177
-225 882 -1142 1598 -2399 2207 -3877 284 -688 567 -1514 795 -2313 188 -664
399 -1550 526 -2220 280 -1478 413 -2510 482 -3745 17 -304 17 -1386 0 -1680
-51 -898 -137 -1687 -332 -3055 -27 -190 -67 -478 -90 -640 -22 -162 -45 -324
-50 -360 -57 -382 -119 -947 -152 -1380 -20 -264 -17 -1071 5 -1295 36 -361
79 -614 154 -910 229 -909 720 -1788 1381 -2476 330 -343 821 -719 1457 -1116
44 -27 134 -83 200 -125 312 -195 377 -236 475 -297 175 -109 637 -421 770
-521 195 -146 357 -278 575 -470 42 -37 164 -152 250 -235 29 -27 102 -99 164
-159 77 -74 110 -113 106 -124 -4 -12 -8 -13 -17 -4 -7 7 -22 12 -34 12 -13 0
-26 5 -29 10 -3 6 -17 10 -31 10 -13 0 -32 4 -42 9 -29 14 -87 31 -110 31 -11
0 -23 4 -26 9 -3 5 -18 11 -33 14 -26 5 -66 15 -153 37 -19 4 -71 18 -115 30
-109 30 -121 32 -370 90 -77 18 -158 36 -180 40 -62 11 -195 39 -245 50 -179
40 -778 132 -1100 169 -2661 305 -5538 -89 -7978 -1094 -636 -261 -1479 -684
-2002 -1005 -1201 -735 -2107 -1428 -3125 -2390 -1722 -1629 -3319 -3784
-4393 -5930 -914 -1824 -1502 -3698 -1761 -5610 -146 -1077 -166 -2236 -61
-3495 25 -297 81 -809 110 -1005 5 -36 16 -117 25 -180 163 -1194 426 -2299
765 -3211 733 -1971 2001 -3641 3765 -4960 1496 -1118 3311 -1930 5235 -2343
735 -157 1390 -246 2215 -298 266 -17 1265 -17 1520 0 304 21 547 41 735 62
1642 185 3120 646 4497 1401 1623 891 3091 2192 4355 3859 1279 1688 2354
3772 3124 6055 95 280 132 396 210 650 341 1108 599 2336 719 3415 73 663 99
1156 99 1900 0 1068 -71 1992 -243 3195 -176 1225 -523 2907 -821 3986 -190
687 -473 1525 -703 2084 -25 61 -62 151 -82 200 -20 50 -48 114 -61 143 -13
29 -24 55 -24 57 0 2 -11 28 -24 57 -13 29 -33 73 -44 98 -28 63 -61 137 -84
190 -62 137 -304 629 -382 775 -104 196 -177 330 -204 378 -12 20 -31 53 -42
72 -11 19 -29 51 -40 70 -11 19 -29 51 -40 70 -11 19 -29 51 -40 71 -11 19
-27 46 -36 59 -9 14 -14 29 -12 36 3 10 233 -136 377 -240 98 -71 274 -201
291 -214 9 -7 42 -32 75 -57 278 -208 655 -534 954 -826 893 -869 1605 -1854
2215 -3064 537 -1063 976 -2257 1366 -3714 585 -2186 831 -4515 710 -6731 -21
-371 -65 -910 -100 -1200 -34 -283 -45 -369 -81 -620 -469 -3267 -1702 -6260
-3654 -8870 -559 -747 -1124 -1396 -1819 -2090 -809 -808 -1553 -1438 -2396
-2030 -1827 -1283 -3914 -2330 -6075 -3051 -1688 -562 -3378 -920 -5075 -1073
-1126 -102 -2399 -122 -3580 -56 -1389 79 -2644 235 -3885 486 -395 80 -984
216 -1250 290 -363 100 -572 161 -845 246 -2207 689 -4132 1726 -5615 3022
-347 304 -742 685 -985 951 -707 775 -1246 1649 -1875 3040 -665 1470 -1104
3070 -1330 4853 -64 506 -93 788 -190 1862 -132 1460 -179 1850 -310 2560
-466 2531 -1488 4435 -3100 5775 -480 400 -942 710 -1605 1080 -171 96 -590
307 -835 420 -540 252 -1212 527 -1960 804 -99 37 -202 76 -230 86 -27 10
-113 42 -190 70 -77 28 -162 60 -190 70 -27 10 -90 33 -140 50 -49 17 -99 35
-110 40 -19 7 -51 19 -190 70 -134 49 -171 62 -190 70 -11 4 -47 18 -80 30
-71 26 -91 34 -127 49 -16 6 -40 16 -55 22 -16 6 -36 15 -45 20 -10 5 -27 9
-38 9 -10 0 -24 9 -30 20 -9 17 -7 20 17 26 43 10 156 45 175 55 10 5 26 9 36
9 10 0 22 4 27 8 6 4 28 14 50 21 22 7 49 16 60 21 11 4 74 29 140 55 66 26
139 55 163 66 23 10 63 28 90 40 107 48 345 171 462 239 721 421 1411 1052
2124 1945 943 1179 1537 2279 1801 3335 66 266 115 536 130 720 4 41 10 119
16 174 36 380 -29 913 -160 1304 -272 813 -847 1432 -1736 1867 -517 253
-1049 396 -1635 440 -89 7 -491 6 -565 0 -611 -56 -1042 -180 -1595 -457 -797
-399 -1504 -1006 -2109 -1812 -611 -813 -1062 -1763 -1310 -2761 -83 -335
-126 -581 -176 -1015 -20 -170 -28 -731 -13 -915 64 -781 286 -1458 671 -2035
68 -102 187 -265 224 -305 10 -11 47 -54 83 -95 74 -85 249 -263 329 -333 41
-37 49 -48 37 -53 -20 -8 -243 1 -381 15 -336 34 -414 43 -610 70 -387 53
-767 121 -1240 220 -211 44 -240 51 -540 122 -674 160 -1474 394 -2175 636
-2036 703 -4123 1678 -6765 3163 -2621 1473 -5051 2994 -7705 4823 -1610 1110
-3634 2583 -5416 3942 -87 66 -86 63 -14 85 25 7 65 20 90 28 25 8 61 19 80
24 19 5 49 13 65 18 17 5 47 14 68 19 20 6 52 15 70 20 17 5 64 19 102 31 39
12 84 25 100 30 17 5 62 18 100 30 39 12 84 25 100 30 17 5 60 18 97 29 38 12
96 30 130 40 877 266 2021 649 2978 996 3100 1125 6216 2544 9384 4272 2892
1578 5982 3509 10196 6371 944 642 1706 1165 4100 2817 272 188 707 487 965
665 2531 1743 3787 2624 5140 3603 3021 2188 5414 4115 7495 6036 1835 1695
3465 3383 5324 5514 104 119 196 217 205 217 9 0 61 -16 116 -36z m16515
-34634 c991 -43 1804 -156 2715 -379 163 -39 504 -131 579 -155 22 -8 102 -33
176 -56 358 -111 909 -315 1181 -438 53 -24 73 -40 104 -83 375 -519 592 -850
862 -1309 653 -1114 1218 -2456 1611 -3830 189 -660 436 -1678 586 -2415 143
-703 284 -1553 350 -2115 9 -74 23 -189 31 -255 128 -1068 172 -2306 115
-3255 -196 -3272 -1286 -6584 -3113 -9465 -875 -1380 -1804 -2478 -2875 -3403
-977 -843 -2050 -1506 -3167 -1957 -1440 -582 -2999 -865 -4635 -842 -416 6
-591 14 -925 42 -825 70 -1691 225 -2490 446 -1250 346 -2394 849 -3450 1517
-1039 657 -1985 1504 -2709 2426 -1116 1421 -1763 3003 -2125 5196 -240 1458
-321 2785 -241 3980 256 3837 2026 7656 5139 11090 1302 1435 2699 2564 4226
3414 364 203 879 455 1270 623 1648 708 3594 1140 5505 1222 272 12 1021 12
1280 1z m-34055 -264 c643 -70 1219 -292 1700 -657 463 -351 747 -794 853
-1334 39 -196 47 -285 46 -535 -1 -261 -13 -391 -60 -634 -219 -1134 -911
-2421 -1923 -3576 -341 -390 -760 -801 -1072 -1053 -617 -497 -1282 -818
-2044 -986 -112 -25 -246 -53 -295 -61 -30 -5 -94 -16 -142 -24 -150 -27 -174
-25 -248 20 -36 22 -76 47 -90 55 -60 35 -281 186 -368 252 -386 289 -696 617
-914 964 -127 203 -258 488 -327 713 -151 486 -202 1069 -145 1660 166 1747
1217 3549 2644 4534 580 400 1083 595 1720 665 125 14 524 12 665 -3z"/>
</g>
</svg>
